<svg xmlns="http://www.w3.org/2000/svg" width="100%" height="100%" viewBox="0 0 80 80">
  <style>
    .white {
      fill: #fff;
    }
    .black {
      fill: #735e48;
    }
  </style>
  <g class="row" data-row="a">
    <rect x="0" y="0" width="10px" height="10px" class="field white" data-coords="0,0" data-field="a8"/>
    <svg xmlns="http://www.w3.org/2000/svg" width="7.5px" height="7.5px" x="1.25px" y="1.25px">

<svg xmlns="http://www.w3.org/2000/svg" width="100%" height="100%" viewBox="0 0 26 26">
    <path d="M 8 2 C 7.449 2 7 2.449 7 3 L 7 8 C 7 8.551 7.449 9 8 9 L 11.0625 9 C 11.022977 9.3074144 11 9.6395826 11 10 C 9.896 10 9 10.672 9 11.5 C 9 12.248244 9.7318206 12.856088 10.6875 12.96875 C 9.7549448 17.037835 7 17.33734 7 19 L 6 19 C 4.896 19 4 19.672 4 20.5 C 4 21.328 4.896 22 6 22 L 6.25 22 L 5.9375 22.28125 C 4.1325 23.91225 3.235 26 5 26 L 21 26 C 22.766 26 21.8705 23.91225 20.0625 22.28125 L 19.75 22 L 20 22 C 21.104 22 22 21.328 22 20.5 C 22 19.672 21.104 19 20 19 L 19 19 C 19 17.33734 16.245055 17.037835 15.3125 12.96875 C 16.268179 12.856088 17 12.248244 17 11.5 C 17 10.672 16.104 10 15 10 C 15 9.6403489 14.977482 9.3072072 14.9375 9 L 18 9 C 18.551 9 19 8.551 19 8 L 19 3 C 19 2.449 18.551 2 18 2 L 17 2 L 17 4 C 17 4 17 5.125 16 5.125 C 15 5.125 15 4 15 4 L 15 2 L 11 2 L 11 4 C 11 4 11 5.125 10 5.125 C 9 5.125 9 4 9 4 L 9 2 L 8 2 z"></path>
</svg>


</svg>
    <rect x="0" y="10" width="10px" height="10px" class="field black" data-coords="0,1" data-field="a7"/>
    <svg xmlns="http://www.w3.org/2000/svg" width="7.5px" height="7.5px" x="1.25px" y="11.25px">

<svg xmlns="http://www.w3.org/2000/svg" width="100%" height="100%" viewBox="0 0 50 50">
    <path d="M 25 8 C 21.134007 8 18 11.134007 18 15 C 18 18.865993 21.134007 22 25 22 C 28.865993 22 32 18.865993 32 15 C 32 11.134007 28.865993 8 25 8 z M 25 22 L 20.5 22 C 18.6 22 17 23.3 17 25 C 17 26.7 18.6 28 20.5 28 L 29.5 28 C 31.4 28 33 26.7 33 25 C 33 23.3 31.4 22 29.5 22 L 25 22 z M 17.9375 29.40625 C 17.5415 29.96325 17.1195 30.4865 16.6875 30.9375 C 15.2335 32.4525 13 33.781 13 36 L 12.5 36 C 10.6 36 9 37.3 9 39 C 9 40.7 10.6 42 12.5 42 L 37.5 42 C 39.4 42 41 40.7 41 39 C 41 37.3 39.4 36 37.5 36 L 37 36 C 37 33.547 34.59375 32.4685 32.84375 30.4375 C 32.67475 30.2425 32.3755 29.84825 32.0625 29.40625 C 31.2965 29.77425 30.425 30 29.5 30 L 20.5 30 C 19.574 30 18.7035 29.77525 17.9375 29.40625 z M 9.90625 43.40625 C 8.52925 45.11725 7.557 47.06425 8.125 48.53125 C 8.337 49.08225 8.9415 50 10.6875 50 L 39.3125 50 C 40.9955 50 41.6015 49.0985 41.8125 48.5625 C 42.3875 47.1075 41.4205 45.13625 40.0625 43.40625 C 39.2945 43.77625 38.428 44 37.5 44 L 12.5 44 C 11.558 44 10.68125 43.78725 9.90625 43.40625 z"></path>
</svg>


</svg>
    <rect x="0" y="20" width="10px" height="10px" class="field white" data-coords="0,2" data-field="a6"/>
    !!!
    <rect x="0" y="30" width="10px" height="10px" class="field black" data-coords="0,3" data-field="a5"/>
    !!!
    <rect x="0" y="40" width="10px" height="10px" class="field white" data-coords="0,4" data-field="a4"/>
    <svg xmlns="http://www.w3.org/2000/svg" width="7.5px" height="7.5px" x="1.25px" y="41.25px">

<svg xmlns="http://www.w3.org/2000/svg" width="100%" height="100%" viewBox="0 0 50 50">
  <circle cx="25px" cy="15px" r="7px" style="fill: #fff;"/>
  <ellipse cx="25px" cy="25px" rx="7px" ry="3px" style="fill: #fff;"/>
  <polygon points="20,28 30,28 37,36 13,36" style="fill: #fff;"/>
  <rect x="10.5px" y="36.5px" width="29px" height="5px" rx="3px" ry="3px" style="fill: #fff;"/>
  <polygon points="12,42 38,42 41,49 9,49" style="fill: #fff;"/>

  <path d="M 25 7 C 20.593567 7 17 10.593567 17 15 C 17 17.533699 18.183641 19.782446 20.03125 21.25 C 18.309476 21.784375 17 23.201243 17 25 C 17 26.301025 17.690466 27.405163 18.71875 28.125 C 17.756716 29.998307 16.541527 31.127935 15.4375 32.125 C 14.844734 32.660337 14.277954 33.144418 13.8125 33.75 C 13.530937 34.11633 13.300544 34.557746 13.15625 35.03125 C 10.912472 35.125016 9 36.806031 9 39 C 9 40.379689 9.7576117 41.566446 10.875 42.28125 C 9.5868435 43.63352 8.5990196 45.053951 8.1875 46.40625 C 7.9389705 47.222945 7.8829136 48.109048 8.34375 48.875 C 8.8045864 49.640952 9.7267759 50 10.71875 50 L 39.28125 50 C 40.27341 50 41.228007 49.642393 41.6875 48.875 C 42.146993 48.107607 42.063276 47.222535 41.8125 46.40625 C 41.397755 45.056241 40.418161 43.632127 39.125 42.28125 C 40.242388 41.566446 41 40.379689 41 39 C 41 36.806031 39.088164 35.125016 36.84375 35.03125 C 36.698949 34.557257 36.467488 34.115492 36.1875 33.75 C 35.72465 33.145803 35.152578 32.657783 34.5625 32.125 C 33.456104 31.126033 32.244405 30.00275 31.28125 28.125 C 32.309534 27.405163 33 26.301025 33 25 C 33 23.200926 31.690355 21.784284 29.96875 21.25 C 31.816359 19.782446 33 17.533699 33 15 C 33 10.593567 29.406433 7 25 7 z M 25 9 C 28.325553 9 31 11.674447 31 15 C 31 18.325553 28.325553 21 25 21 C 21.674447 21 19 18.325553 19 15 C 19 11.674447 21.674447 9 25 9 z M 21.5 23 L 25 23 L 28.5 23 C 29.968232 23 31 23.97524 31 25 C 31 26.025163 29.969472 27 28.5 27 L 21.5 27 C 20.030528 27 19 26.025163 19 25 C 19 23.974837 20.030528 23 21.5 23 z M 20.53125 28.90625 C 20.848243 28.969416 21.166813 29 21.5 29 L 28.5 29 C 28.822987 29 29.129591 28.965696 29.4375 28.90625 C 30.579454 31.185766 32.083218 32.599725 33.21875 33.625 C 33.813047 34.161592 34.302631 34.588728 34.59375 34.96875 C 34.604381 34.982627 34.614836 34.986405 34.625 35 L 15.375 35 C 15.385243 34.986345 15.395527 34.982701 15.40625 34.96875 C 15.69989 34.586707 16.183141 34.133913 16.78125 33.59375 C 17.912115 32.572446 19.393365 31.16422 20.53125 28.90625 z M 13.34375 37 L 36.65625 37 C 38.010558 37 39 37.945047 39 39 C 39 40.054953 38.009293 41 36.65625 41 L 13.34375 41 C 11.990707 41 11 40.054953 11 39 C 11 37.945047 11.990707 37 13.34375 37 z M 13 42.96875 C 13.116414 42.977589 13.22551 43 13.34375 43 L 36.65625 43 C 36.77449 43 36.883586 42.977589 37 42.96875 C 38.488273 44.361194 39.592909 45.980065 39.90625 47 C 40.065224 47.517465 39.99632 47.797706 39.96875 47.84375 C 39.94118 47.889794 39.86809 48 39.28125 48 L 10.71875 48 C 10.132224 48 10.05982 47.891236 10.03125 47.84375 C 10.00268 47.79626 9.936405 47.517055 10.09375 47 C 10.403881 45.980875 11.514711 44.360797 13 42.96875 z"></path>
</svg>


</svg>
    <rect x="0" y="50" width="10px" height="10px" class="field black" data-coords="0,5" data-field="a3"/>
    !!!
    <rect x="0" y="60" width="10px" height="10px" class="field white" data-coords="0,6" data-field="a2"/>
    !!!
    <rect x="0" y="70" width="10px" height="10px" class="field black" data-coords="0,7" data-field="a1"/>
    <svg xmlns="http://www.w3.org/2000/svg" width="7.5px" height="7.5px" x="1.25px" y="71.25px">

<svg xmlns="http://www.w3.org/2000/svg" width="100%" height="100%" viewBox="0 0 50 50">
  <ellipse cx="25px" cy="25px" rx="7px" ry="3px" style="fill: #fff;"/>
  <polygon points="20,28 30,28 37,36 13,36" style="fill: #fff;"/>
  <rect x="10.5px" y="36.5px" width="29px" height="5px" rx="3px" ry="3px" style="fill: #fff;"/>
  <polygon points="12,42 38,42 41,49 9,49" style="fill: #fff;"/>
  <rect x="21px" y="18px" width="8px" height="4px" style="fill: #fff;"/>
  <polygon points="13,4 17,4 17,9.5 21,9.5 21,4 29,4 29,9.5 33,9.5 33,4 37,4 37,17.5 13,17.5" style="fill: #fff;"/>

  <path d="M 15 3 C 13.354745 3 12 4.3547453 12 6 L 12 16 C 12 17.645255 13.354745 19 15 19 L 20 19 L 20 21.25 C 18.292092 21.791256 17 23.210975 17 25 C 17 26.362059 17.765116 27.504476 18.875 28.21875 C 17.939636 30.079528 16.752238 31.160171 15.6875 32.15625 C 15.1234 32.683974 14.598012 33.179654 14.15625 33.78125 C 13.894455 34.137766 13.67184 34.544732 13.53125 35 L 13.34375 35 C 11.016793 35 9 36.742953 9 39 C 9 40.379689 9.7576117 41.566446 10.875 42.28125 C 9.5868435 43.63352 8.5990196 45.053951 8.1875 46.40625 C 7.9389705 47.222945 7.8829136 48.109048 8.34375 48.875 C 8.8045864 49.640952 9.7267759 50 10.71875 50 L 39.28125 50 C 40.27341 50 41.228007 49.642393 41.6875 48.875 C 42.146993 48.107607 42.063276 47.222535 41.8125 46.40625 C 41.397755 45.056241 40.418161 43.632127 39.125 42.28125 C 40.242388 41.566446 41 40.379689 41 39 C 41 36.742953 38.983942 35 36.65625 35 L 36.46875 35 C 36.328573 34.545206 36.106846 34.138537 35.84375 33.78125 C 35.399793 33.178353 34.847572 32.686039 34.28125 32.15625 C 33.224116 31.167311 32.054024 30.0618 31.125 28.21875 C 32.234884 27.504476 33 26.362059 33 25 C 33 23.21066 31.707747 21.791164 30 21.25 L 30 19 L 35 19 C 36.645255 19 38 17.645255 38 16 L 38 6 C 38 4.3547453 36.645255 3 35 3 L 33 3 A 1.0001 1.0001 0 0 0 32 4 L 32 8 C 32 8 31.974493 8.3010139 31.84375 8.5625 C 31.713007 8.8239861 31.666667 9 31 9 C 30.333333 9 30.286993 8.8239861 30.15625 8.5625 C 30.025507 8.3010139 30 8 30 8 L 30 4 A 1.0001 1.0001 0 0 0 29 3 L 21 3 A 1.0001 1.0001 0 0 0 20 4 L 20 8 C 20 8 19.974493 8.3010139 19.84375 8.5625 C 19.713007 8.8239861 19.666667 9 19 9 C 18.333333 9 18.286993 8.8239861 18.15625 8.5625 C 18.025507 8.3010139 18 8 18 8 L 18 4 A 1.0001 1.0001 0 0 0 17 3 L 15 3 z M 15 5 L 16 5 L 16 8 C 16 8 15.97449 8.6989861 16.34375 9.4375 C 16.713007 10.176014 17.666667 11 19 11 C 20.333333 11 21.286993 10.176014 21.65625 9.4375 C 22.025507 8.6989861 22 8 22 8 L 22 5 L 28 5 L 28 8 C 28 8 27.97449 8.6989861 28.34375 9.4375 C 28.713007 10.176014 29.666667 11 31 11 C 32.333333 11 33.286993 10.176014 33.65625 9.4375 C 34.025507 8.6989861 34 8 34 8 L 34 5 L 35 5 C 35.558745 5 36 5.4412547 36 6 L 36 16 C 36 16.558745 35.558745 17 35 17 L 29.1875 17 A 1.0001 1.0001 0 0 0 28.78125 17 L 21.1875 17 A 1.0001 1.0001 0 0 0 20.78125 17 L 15 17 C 14.441255 17 14 16.558745 14 16 L 14 6 C 14 5.4412547 14.441255 5 15 5 z M 22 19 L 28 19 L 28 21 L 22 21 L 22 19 z M 21.5 23 L 28.5 23 C 29.968232 23 31 23.97524 31 25 C 31 26.025163 29.969472 27 28.5 27 L 21.5 27 C 20.030528 27 19 26.025163 19 25 C 19 23.974837 20.030528 23 21.5 23 z M 20.71875 28.9375 C 20.976552 28.978644 21.232367 29 21.5 29 L 28.5 29 C 28.767633 29 29.023448 28.978644 29.28125 28.9375 C 30.384226 31.202122 31.814648 32.603816 32.90625 33.625 C 33.475428 34.157461 33.940832 34.591335 34.21875 34.96875 C 34.228899 34.982532 34.240249 34.986504 34.25 35 L 15.75 35 C 15.759687 34.986553 15.771175 34.98247 15.78125 34.96875 C 16.057144 34.593034 16.496475 34.154526 17.0625 33.625 C 18.158164 32.599989 19.610083 31.218995 20.71875 28.9375 z M 13.34375 37 L 36.65625 37 C 38.010558 37 39 37.945047 39 39 C 39 40.054953 38.009293 41 36.65625 41 L 13.34375 41 C 11.990707 41 11 40.054953 11 39 C 11 37.945047 11.990707 37 13.34375 37 z M 13 42.96875 C 13.116414 42.977589 13.22551 43 13.34375 43 L 36.65625 43 C 36.77449 43 36.883586 42.977589 37 42.96875 C 38.488273 44.361194 39.592909 45.980065 39.90625 47 C 40.065224 47.517465 39.99632 47.797706 39.96875 47.84375 C 39.94118 47.889794 39.86809 48 39.28125 48 L 10.71875 48 C 10.132224 48 10.05982 47.891236 10.03125 47.84375 C 10.00268 47.79626 9.936405 47.517055 10.09375 47 C 10.403881 45.980875 11.514711 44.360797 13 42.96875 z"></path>
</svg>


</svg>
  </g>
  <g class="row" data-row="b">
    <rect x="10" y="0" width="10px" height="10px" class="field black" data-coords="1,0" data-field="b8"/>
    <svg xmlns="http://www.w3.org/2000/svg" width="7.5px" height="7.5px" x="11.25px" y="1.25px">

<svg xmlns="http://www.w3.org/2000/svg" width="100%" height="100%" viewBox="0 0 26 26">
    <path d="M 13.9375 0.03125 C 11.1385 0.50225 10.83725 3.07275 10.65625 3.59375 C 9.90625 4.03675 8.877 4.9365 8.125 5.6875 C 6.24 7.5735 5.5385 10.6655 6.6875 13.6875 C 7.1875 15.0015 8.03125 19 8.03125 19 L 6 19 C 4.896 19 4 19.672 4 20.5 C 4 21.328 4.896 22 6 22 L 6.25 22 L 5.9375 22.28125 C 4.1325 23.91225 3.235 26 5 26 L 21 26 C 22.766 26 21.8705 23.91225 20.0625 22.28125 L 19.75 22 L 20 22 C 21.104 22 22 21.328 22 20.5 C 22 19.672 21.104 19 20 19 L 19 19 C 19 15.294 13.84375 11.13075 13.84375 10.59375 C 13.84375 10.17175 14.0615 10.70425 14.6875 10.65625 C 15.3065 10.60725 15.95625 9.6875 16.53125 9.6875 C 17.76725 9.6875 17.573 10.78125 18.625 10.78125 C 19.336 10.78125 19.6535 10.00125 19.9375 9.65625 C 20.2945 9.22425 21.303 9.3985 20.75 8.1875 C 20.457 7.5435 19.31125 5.39 17.15625 4.5 C 16.17425 4.094 17.07975 2.96875 13.96875 2.96875 C 13.70075 2.55475 13.7345 1.04725 13.9375 0.03125 z"></path>
</svg>


</svg>
    <rect x="10" y="10" width="10px" height="10px" class="field white" data-coords="1,1" data-field="b7"/>
    <svg xmlns="http://www.w3.org/2000/svg" width="7.5px" height="7.5px" x="11.25px" y="11.25px">

<svg xmlns="http://www.w3.org/2000/svg" width="100%" height="100%" viewBox="0 0 50 50">
    <path d="M 25 8 C 21.134007 8 18 11.134007 18 15 C 18 18.865993 21.134007 22 25 22 C 28.865993 22 32 18.865993 32 15 C 32 11.134007 28.865993 8 25 8 z M 25 22 L 20.5 22 C 18.6 22 17 23.3 17 25 C 17 26.7 18.6 28 20.5 28 L 29.5 28 C 31.4 28 33 26.7 33 25 C 33 23.3 31.4 22 29.5 22 L 25 22 z M 17.9375 29.40625 C 17.5415 29.96325 17.1195 30.4865 16.6875 30.9375 C 15.2335 32.4525 13 33.781 13 36 L 12.5 36 C 10.6 36 9 37.3 9 39 C 9 40.7 10.6 42 12.5 42 L 37.5 42 C 39.4 42 41 40.7 41 39 C 41 37.3 39.4 36 37.5 36 L 37 36 C 37 33.547 34.59375 32.4685 32.84375 30.4375 C 32.67475 30.2425 32.3755 29.84825 32.0625 29.40625 C 31.2965 29.77425 30.425 30 29.5 30 L 20.5 30 C 19.574 30 18.7035 29.77525 17.9375 29.40625 z M 9.90625 43.40625 C 8.52925 45.11725 7.557 47.06425 8.125 48.53125 C 8.337 49.08225 8.9415 50 10.6875 50 L 39.3125 50 C 40.9955 50 41.6015 49.0985 41.8125 48.5625 C 42.3875 47.1075 41.4205 45.13625 40.0625 43.40625 C 39.2945 43.77625 38.428 44 37.5 44 L 12.5 44 C 11.558 44 10.68125 43.78725 9.90625 43.40625 z"></path>
</svg>


</svg>
    <rect x="10" y="20" width="10px" height="10px" class="field black" data-coords="1,2" data-field="b6"/>
    !!!
    <rect x="10" y="30" width="10px" height="10px" class="field white" data-coords="1,3" data-field="b5"/>
    !!!
    <rect x="10" y="40" width="10px" height="10px" class="field black" data-coords="1,4" data-field="b4"/>
    !!!
    <rect x="10" y="50" width="10px" height="10px" class="field white" data-coords="1,5" data-field="b3"/>
    !!!
    <rect x="10" y="60" width="10px" height="10px" class="field black" data-coords="1,6" data-field="b2"/>
    <svg xmlns="http://www.w3.org/2000/svg" width="7.5px" height="7.5px" x="11.25px" y="61.25px">

<svg xmlns="http://www.w3.org/2000/svg" width="100%" height="100%" viewBox="0 0 50 50">
  <circle cx="25px" cy="15px" r="7px" style="fill: #fff;"/>
  <ellipse cx="25px" cy="25px" rx="7px" ry="3px" style="fill: #fff;"/>
  <polygon points="20,28 30,28 37,36 13,36" style="fill: #fff;"/>
  <rect x="10.5px" y="36.5px" width="29px" height="5px" rx="3px" ry="3px" style="fill: #fff;"/>
  <polygon points="12,42 38,42 41,49 9,49" style="fill: #fff;"/>

  <path d="M 25 7 C 20.593567 7 17 10.593567 17 15 C 17 17.533699 18.183641 19.782446 20.03125 21.25 C 18.309476 21.784375 17 23.201243 17 25 C 17 26.301025 17.690466 27.405163 18.71875 28.125 C 17.756716 29.998307 16.541527 31.127935 15.4375 32.125 C 14.844734 32.660337 14.277954 33.144418 13.8125 33.75 C 13.530937 34.11633 13.300544 34.557746 13.15625 35.03125 C 10.912472 35.125016 9 36.806031 9 39 C 9 40.379689 9.7576117 41.566446 10.875 42.28125 C 9.5868435 43.63352 8.5990196 45.053951 8.1875 46.40625 C 7.9389705 47.222945 7.8829136 48.109048 8.34375 48.875 C 8.8045864 49.640952 9.7267759 50 10.71875 50 L 39.28125 50 C 40.27341 50 41.228007 49.642393 41.6875 48.875 C 42.146993 48.107607 42.063276 47.222535 41.8125 46.40625 C 41.397755 45.056241 40.418161 43.632127 39.125 42.28125 C 40.242388 41.566446 41 40.379689 41 39 C 41 36.806031 39.088164 35.125016 36.84375 35.03125 C 36.698949 34.557257 36.467488 34.115492 36.1875 33.75 C 35.72465 33.145803 35.152578 32.657783 34.5625 32.125 C 33.456104 31.126033 32.244405 30.00275 31.28125 28.125 C 32.309534 27.405163 33 26.301025 33 25 C 33 23.200926 31.690355 21.784284 29.96875 21.25 C 31.816359 19.782446 33 17.533699 33 15 C 33 10.593567 29.406433 7 25 7 z M 25 9 C 28.325553 9 31 11.674447 31 15 C 31 18.325553 28.325553 21 25 21 C 21.674447 21 19 18.325553 19 15 C 19 11.674447 21.674447 9 25 9 z M 21.5 23 L 25 23 L 28.5 23 C 29.968232 23 31 23.97524 31 25 C 31 26.025163 29.969472 27 28.5 27 L 21.5 27 C 20.030528 27 19 26.025163 19 25 C 19 23.974837 20.030528 23 21.5 23 z M 20.53125 28.90625 C 20.848243 28.969416 21.166813 29 21.5 29 L 28.5 29 C 28.822987 29 29.129591 28.965696 29.4375 28.90625 C 30.579454 31.185766 32.083218 32.599725 33.21875 33.625 C 33.813047 34.161592 34.302631 34.588728 34.59375 34.96875 C 34.604381 34.982627 34.614836 34.986405 34.625 35 L 15.375 35 C 15.385243 34.986345 15.395527 34.982701 15.40625 34.96875 C 15.69989 34.586707 16.183141 34.133913 16.78125 33.59375 C 17.912115 32.572446 19.393365 31.16422 20.53125 28.90625 z M 13.34375 37 L 36.65625 37 C 38.010558 37 39 37.945047 39 39 C 39 40.054953 38.009293 41 36.65625 41 L 13.34375 41 C 11.990707 41 11 40.054953 11 39 C 11 37.945047 11.990707 37 13.34375 37 z M 13 42.96875 C 13.116414 42.977589 13.22551 43 13.34375 43 L 36.65625 43 C 36.77449 43 36.883586 42.977589 37 42.96875 C 38.488273 44.361194 39.592909 45.980065 39.90625 47 C 40.065224 47.517465 39.99632 47.797706 39.96875 47.84375 C 39.94118 47.889794 39.86809 48 39.28125 48 L 10.71875 48 C 10.132224 48 10.05982 47.891236 10.03125 47.84375 C 10.00268 47.79626 9.936405 47.517055 10.09375 47 C 10.403881 45.980875 11.514711 44.360797 13 42.96875 z"></path>
</svg>


</svg>
    <rect x="10" y="70" width="10px" height="10px" class="field white" data-coords="1,7" data-field="b1"/>
    <svg xmlns="http://www.w3.org/2000/svg" width="7.5px" height="7.5px" x="11.25px" y="71.25px">

<svg xmlns="http://www.w3.org/2000/svg" width="100%" height="100%" viewBox="0 0 50 50">
    <polygon points="12,42 38,42 41,49 9,49" style="fill: #fff;"/>
    <rect x="10.5px" y="36.5px" width="29px" height="5px" rx="3px" ry="3px" style="fill: #fff;"/>
    <polygon points="26,3 26,8 31.5,9.3 39.5,18.5 34.5,22 31,20 27,22 35,33 35,36 16,36 13,22 15,14.5" style="fill: #fff;"/>
    <path d="M 26.5 2.0625 C 23.734974 2.5276185 22.06246 4.1412538 21.15625 5.6875 C 20.703145 6.4606231 20.407621 7.2261831 20.21875 7.84375 C 20.063812 8.3503655 19.986558 8.657717 19.9375 8.84375 C 18.523251 9.7540989 16.916586 11.115613 15.65625 12.375 C 12.021676 16.010663 10.74585 21.879361 12.90625 27.5625 C 13.632871 29.471252 15 31.787429 15 35 L 13.34375 35 C 11.016793 35 9 36.742953 9 39 C 9 40.379689 9.7576117 41.566446 10.875 42.28125 C 9.5868435 43.63352 8.5990196 45.053951 8.1875 46.40625 C 7.9389705 47.222945 7.8829136 48.109048 8.34375 48.875 C 8.8045864 49.640952 9.7267759 50 10.71875 50 L 39.28125 50 C 40.27341 50 41.228007 49.642393 41.6875 48.875 C 42.146993 48.107607 42.063276 47.222535 41.8125 46.40625 C 41.397755 45.056241 40.418161 43.632127 39.125 42.28125 C 40.242388 41.566446 41 40.379689 41 39 C 41 36.742953 38.983942 35 36.65625 35 L 36 35 C 36 31.148041 33.670475 27.887004 31.46875 25.46875 C 30.425828 24.323261 29.4381 23.385519 28.65625 22.65625 C 29.306474 22.438372 29.83245 22.070679 30.25 21.75 C 30.794833 21.331568 31.245768 21.15625 31.21875 21.15625 C 32.019331 21.15625 32.064736 21.323526 32.46875 21.78125 C 32.670757 22.010112 32.931688 22.313579 33.34375 22.59375 C 33.755812 22.873921 34.330855 23.0625 34.96875 23.0625 C 35.9597 23.0625 36.703583 22.498446 37.15625 21.96875 C 37.608917 21.439054 37.899529 20.87881 38.03125 20.71875 C 38.02195 20.73005 38.10896 20.65712 38.3125 20.5625 C 38.516039 20.46788 38.814582 20.368742 39.15625 20.125 C 39.497918 19.881258 39.89322 19.411132 39.96875 18.84375 C 40.04428 18.276368 39.88154 17.724064 39.59375 17.09375 C 39.017329 15.828733 36.941335 11.777915 32.71875 10.03125 C 32.486029 9.934975 32.467538 9.8863856 32.34375 9.6875 C 32.219962 9.4886144 32.055357 9.1188273 31.6875 8.6875 C 31.319643 8.2561727 30.731171 7.8364532 29.9375 7.59375 C 29.3349 7.4094757 28.415641 7.3891411 27.46875 7.34375 C 27.4527 7.278015 27.44919 7.302113 27.4375 7.21875 C 27.39408 6.9091166 27.37204 6.5171793 27.375 6.0625 C 27.3809 5.1531414 27.46113 4.0702747 27.625 3.25 A 1.0001 1.0001 0 0 0 26.5 2.0625 z M 25.53125 4.5625 C 25.48427 5.0680747 25.378182 5.5423335 25.375 6.03125 C 25.3716 6.5561957 25.374391 7.0499772 25.4375 7.5 C 25.50061 7.9500228 25.568163 8.3556593 25.84375 8.78125 A 1.0001 1.0001 0 0 0 26.6875 9.25 C 28.002877 9.25 28.836421 9.3761095 29.34375 9.53125 C 29.851079 9.6863905 30.020607 9.8097023 30.15625 9.96875 C 30.291893 10.127798 30.389288 10.371292 30.625 10.75 C 30.860712 11.128708 31.301221 11.611775 31.9375 11.875 C 35.334915 13.280335 37.319671 16.893267 37.78125 17.90625 C 37.973601 18.327535 37.968537 18.513875 37.96875 18.53125 C 37.89835 18.57513 37.723715 18.63147 37.46875 18.75 C 37.194352 18.877564 36.825346 19.075452 36.5 19.46875 C 36.129721 19.91869 35.886333 20.350446 35.625 20.65625 C 35.363667 20.962054 35.2358 21.0625 34.96875 21.0625 C 34.675645 21.0625 34.587813 21.01845 34.46875 20.9375 C 34.349687 20.85655 34.191743 20.690138 33.96875 20.4375 C 33.522764 19.932224 32.606169 19.15625 31.21875 19.15625 C 30.173732 19.15625 29.580167 19.765932 29.03125 20.1875 C 28.482333 20.609068 27.986792 20.868674 27.90625 20.875 C 27.641831 20.89552 27.564662 20.82544 27.3125 20.6875 C 27.24946 20.65301 27.164597 20.61539 27.03125 20.5625 C 26.897903 20.50961 26.655064 20.396956 26.25 20.53125 C 25.844936 20.665544 25.59222 21.068722 25.53125 21.28125 C 25.47028 21.493778 25.46875 21.611667 25.46875 21.75 C 25.46875 22.204548 25.638565 22.369358 25.75 22.53125 C 25.861435 22.693142 25.989712 22.824567 26.125 22.96875 C 26.395575 23.257116 26.723657 23.594003 27.125 23.96875 C 27.927686 24.718244 28.970613 25.681877 30 26.8125 C 32.058775 29.073746 34 31.973959 34 35 L 17 35 C 17 31.212571 15.347379 28.444248 14.75 26.875 C 12.8444 21.862139 14.027074 16.817587 17.0625 13.78125 C 18.349308 12.49541 20.178657 10.937826 21.34375 10.25 A 1.0001 1.0001 0 0 0 21.78125 9.71875 C 21.916144 9.3308766 21.964402 8.9313706 22.125 8.40625 C 22.285598 7.8811294 22.52973 7.2766269 22.875 6.6875 C 23.390333 5.8081993 24.284683 5.0837554 25.53125 4.5625 z M 13.34375 37 L 36.65625 37 C 38.010558 37 39 37.945047 39 39 C 39 40.054953 38.009293 41 36.65625 41 L 13.34375 41 C 11.990707 41 11 40.054953 11 39 C 11 37.945047 11.990707 37 13.34375 37 z M 13 42.96875 C 13.116414 42.977589 13.22551 43 13.34375 43 L 36.65625 43 C 36.77449 43 36.883586 42.977589 37 42.96875 C 38.488273 44.361194 39.592909 45.980065 39.90625 47 C 40.065224 47.517465 39.99632 47.797706 39.96875 47.84375 C 39.94118 47.889794 39.86809 48 39.28125 48 L 10.71875 48 C 10.132224 48 10.05982 47.891236 10.03125 47.84375 C 10.00268 47.79626 9.936405 47.517055 10.09375 47 C 10.403881 45.980875 11.514711 44.360797 13 42.96875 z"></path>

</svg>


</svg>
  </g>
  <g class="row" data-row="c">
    <rect x="20" y="0" width="10px" height="10px" class="field white" data-coords="2,0" data-field="c8"/>
    <svg xmlns="http://www.w3.org/2000/svg" width="7.5px" height="7.5px" x="21.25px" y="1.25px">

<svg xmlns="http://www.w3.org/2000/svg" width="100%" height="100%" viewBox="0 0 50 50">
    <path d="M 25 0 C 22.794 0 21 1.794 21 4 C 21 4.614 21.15825 5.19875 21.40625 5.71875 C 21.29525 5.80675 21.1855 5.90325 21.0625 6.03125 C 18.9935 8.08325 15 12.53325 15 16.40625 C 15 16.85525 15.04575 17.29075 15.09375 17.71875 C 15.10375 17.80575 15.113 17.88175 15.125 17.96875 C 15.404 20.00675 16.21375 21.8065 17.59375 23.3125 C 17.21475 23.7895 17 24.363 17 25 C 17 26.7 18.6 28 20.5 28 L 29.5 28 C 31.4 28 33 26.7 33 25 C 33 24.384 32.7955 23.81175 32.4375 23.34375 C 32.4715 23.31575 32.50125 23.31325 32.53125 23.28125 C 33.80625 21.90725 34.602 20.0995 34.875 18.0625 C 34.887 17.9805 34.89725 17.8955 34.90625 17.8125 C 34.95525 17.3865 35 16.942 35 16.5 C 35 12.952 31.7565 8.89225 28.9375 6.03125 C 28.8135 5.90625 28.70775 5.80175 28.59375 5.71875 C 28.84875 5.19375 29 4.622 29 4 C 29 1.794 27.206 0 25 0 z M 25 2 C 26.103 2 27 2.897 27 4 C 27 5.103 26.103 6 25 6 C 23.897 6 23 5.103 23 4 C 23 2.897 23.897 2 25 2 z M 18.125 29.5 C 17.342 30.646 16.4775 31.4495 15.6875 32.1875 C 15.0635 32.7695 14.46125 33.347 14.03125 34 C 13.65025 34.576 13.40625 35.217 13.40625 36 L 12.5 36 C 10.6 36 9 37.3 9 39 C 9 40.7 10.6 42 12.5 42 L 37.5 42 C 39.4 42 41 40.7 41 39 C 41 37.3 39.4 36 37.5 36 L 36.59375 36 C 36.59375 35.216 36.35075 34.575 35.96875 34 C 35.53175 33.343 34.91525 32.7715 34.28125 32.1875 C 33.48525 31.4525 32.61975 30.65225 31.84375 29.53125 C 31.12975 29.83725 30.339 30 29.5 30 L 20.5 30 C 19.646 30 18.847 29.816 18.125 29.5 z M 9.90625 43.40625 C 8.52925 45.11725 7.557 47.06425 8.125 48.53125 C 8.337 49.08225 8.9415 50 10.6875 50 L 39.3125 50 C 40.9955 50 41.6015 49.0985 41.8125 48.5625 C 42.3875 47.1075 41.4205 45.13625 40.0625 43.40625 C 39.2945 43.77625 38.428 44 37.5 44 L 12.5 44 C 11.558 44 10.68125 43.78725 9.90625 43.40625 z"></path>
</svg>


</svg>
    <rect x="20" y="10" width="10px" height="10px" class="field black" data-coords="2,1" data-field="c7"/>
    <svg xmlns="http://www.w3.org/2000/svg" width="7.5px" height="7.5px" x="21.25px" y="11.25px">

<svg xmlns="http://www.w3.org/2000/svg" width="100%" height="100%" viewBox="0 0 50 50">
    <path d="M 25 8 C 21.134007 8 18 11.134007 18 15 C 18 18.865993 21.134007 22 25 22 C 28.865993 22 32 18.865993 32 15 C 32 11.134007 28.865993 8 25 8 z M 25 22 L 20.5 22 C 18.6 22 17 23.3 17 25 C 17 26.7 18.6 28 20.5 28 L 29.5 28 C 31.4 28 33 26.7 33 25 C 33 23.3 31.4 22 29.5 22 L 25 22 z M 17.9375 29.40625 C 17.5415 29.96325 17.1195 30.4865 16.6875 30.9375 C 15.2335 32.4525 13 33.781 13 36 L 12.5 36 C 10.6 36 9 37.3 9 39 C 9 40.7 10.6 42 12.5 42 L 37.5 42 C 39.4 42 41 40.7 41 39 C 41 37.3 39.4 36 37.5 36 L 37 36 C 37 33.547 34.59375 32.4685 32.84375 30.4375 C 32.67475 30.2425 32.3755 29.84825 32.0625 29.40625 C 31.2965 29.77425 30.425 30 29.5 30 L 20.5 30 C 19.574 30 18.7035 29.77525 17.9375 29.40625 z M 9.90625 43.40625 C 8.52925 45.11725 7.557 47.06425 8.125 48.53125 C 8.337 49.08225 8.9415 50 10.6875 50 L 39.3125 50 C 40.9955 50 41.6015 49.0985 41.8125 48.5625 C 42.3875 47.1075 41.4205 45.13625 40.0625 43.40625 C 39.2945 43.77625 38.428 44 37.5 44 L 12.5 44 C 11.558 44 10.68125 43.78725 9.90625 43.40625 z"></path>
</svg>


</svg>
    <rect x="20" y="20" width="10px" height="10px" class="field white" data-coords="2,2" data-field="c6"/>
    !!!
    <rect x="20" y="30" width="10px" height="10px" class="field black" data-coords="2,3" data-field="c5"/>
    !!!
    <rect x="20" y="40" width="10px" height="10px" class="field white" data-coords="2,4" data-field="c4"/>
    !!!
    <rect x="20" y="50" width="10px" height="10px" class="field black" data-coords="2,5" data-field="c3"/>
    !!!
    <rect x="20" y="60" width="10px" height="10px" class="field white" data-coords="2,6" data-field="c2"/>
    <svg xmlns="http://www.w3.org/2000/svg" width="7.5px" height="7.5px" x="21.25px" y="61.25px">

<svg xmlns="http://www.w3.org/2000/svg" width="100%" height="100%" viewBox="0 0 50 50">
  <circle cx="25px" cy="15px" r="7px" style="fill: #fff;"/>
  <ellipse cx="25px" cy="25px" rx="7px" ry="3px" style="fill: #fff;"/>
  <polygon points="20,28 30,28 37,36 13,36" style="fill: #fff;"/>
  <rect x="10.5px" y="36.5px" width="29px" height="5px" rx="3px" ry="3px" style="fill: #fff;"/>
  <polygon points="12,42 38,42 41,49 9,49" style="fill: #fff;"/>

  <path d="M 25 7 C 20.593567 7 17 10.593567 17 15 C 17 17.533699 18.183641 19.782446 20.03125 21.25 C 18.309476 21.784375 17 23.201243 17 25 C 17 26.301025 17.690466 27.405163 18.71875 28.125 C 17.756716 29.998307 16.541527 31.127935 15.4375 32.125 C 14.844734 32.660337 14.277954 33.144418 13.8125 33.75 C 13.530937 34.11633 13.300544 34.557746 13.15625 35.03125 C 10.912472 35.125016 9 36.806031 9 39 C 9 40.379689 9.7576117 41.566446 10.875 42.28125 C 9.5868435 43.63352 8.5990196 45.053951 8.1875 46.40625 C 7.9389705 47.222945 7.8829136 48.109048 8.34375 48.875 C 8.8045864 49.640952 9.7267759 50 10.71875 50 L 39.28125 50 C 40.27341 50 41.228007 49.642393 41.6875 48.875 C 42.146993 48.107607 42.063276 47.222535 41.8125 46.40625 C 41.397755 45.056241 40.418161 43.632127 39.125 42.28125 C 40.242388 41.566446 41 40.379689 41 39 C 41 36.806031 39.088164 35.125016 36.84375 35.03125 C 36.698949 34.557257 36.467488 34.115492 36.1875 33.75 C 35.72465 33.145803 35.152578 32.657783 34.5625 32.125 C 33.456104 31.126033 32.244405 30.00275 31.28125 28.125 C 32.309534 27.405163 33 26.301025 33 25 C 33 23.200926 31.690355 21.784284 29.96875 21.25 C 31.816359 19.782446 33 17.533699 33 15 C 33 10.593567 29.406433 7 25 7 z M 25 9 C 28.325553 9 31 11.674447 31 15 C 31 18.325553 28.325553 21 25 21 C 21.674447 21 19 18.325553 19 15 C 19 11.674447 21.674447 9 25 9 z M 21.5 23 L 25 23 L 28.5 23 C 29.968232 23 31 23.97524 31 25 C 31 26.025163 29.969472 27 28.5 27 L 21.5 27 C 20.030528 27 19 26.025163 19 25 C 19 23.974837 20.030528 23 21.5 23 z M 20.53125 28.90625 C 20.848243 28.969416 21.166813 29 21.5 29 L 28.5 29 C 28.822987 29 29.129591 28.965696 29.4375 28.90625 C 30.579454 31.185766 32.083218 32.599725 33.21875 33.625 C 33.813047 34.161592 34.302631 34.588728 34.59375 34.96875 C 34.604381 34.982627 34.614836 34.986405 34.625 35 L 15.375 35 C 15.385243 34.986345 15.395527 34.982701 15.40625 34.96875 C 15.69989 34.586707 16.183141 34.133913 16.78125 33.59375 C 17.912115 32.572446 19.393365 31.16422 20.53125 28.90625 z M 13.34375 37 L 36.65625 37 C 38.010558 37 39 37.945047 39 39 C 39 40.054953 38.009293 41 36.65625 41 L 13.34375 41 C 11.990707 41 11 40.054953 11 39 C 11 37.945047 11.990707 37 13.34375 37 z M 13 42.96875 C 13.116414 42.977589 13.22551 43 13.34375 43 L 36.65625 43 C 36.77449 43 36.883586 42.977589 37 42.96875 C 38.488273 44.361194 39.592909 45.980065 39.90625 47 C 40.065224 47.517465 39.99632 47.797706 39.96875 47.84375 C 39.94118 47.889794 39.86809 48 39.28125 48 L 10.71875 48 C 10.132224 48 10.05982 47.891236 10.03125 47.84375 C 10.00268 47.79626 9.936405 47.517055 10.09375 47 C 10.403881 45.980875 11.514711 44.360797 13 42.96875 z"></path>
</svg>


</svg>
    <rect x="20" y="70" width="10px" height="10px" class="field black" data-coords="2,7" data-field="c1"/>
    <svg xmlns="http://www.w3.org/2000/svg" width="7.5px" height="7.5px" x="21.25px" y="71.25px">

<svg xmlns="http://www.w3.org/2000/svg" version="1" viewBox="0 0 50 50" enable-background="new 0 0 50 50" width="100%" height="100%">
  <ellipse cx="25px" cy="25px" rx="7px" ry="3px" style="fill: #fff;"/>
  <polygon points="20,28 30,28 37,36 13,36" style="fill: #fff;"/>
  <rect x="10.5px" y="36.5px" width="29px" height="5px" rx="3px" ry="3px" style="fill: #fff;"/>
  <polygon points="12,42 38,42 41,49 9,49" style="fill: #fff;"/>
  <circle cx="25px" cy="4px" r="3px" style="fill: #fff;"/>
  <polygon points="25,7 29,7 34.5,17 31.5,22.5 18.5,22.5 15.5,17 21,7" style="fill: #fff;"/>


  <path d="M 25 0 C 22.802706 0 21 1.8027056 21 4 C 21 4.6056645 21.161808 5.1712853 21.40625 5.6875 C 20.018141 7.024198 18.46388 8.7457143 17.21875 10.59375 C 15.97362 12.441786 15 14.412816 15 16.40625 C 15 19.337118 16.043658 21.552226 17.5 23.1875 C 17.1893 23.725651 17 24.328291 17 25 C 17 26.382579 17.766871 27.511683 18.875 28.21875 C 17.936603 30.067514 16.769637 31.174652 15.71875 32.15625 C 15.151979 32.685651 14.632013 33.178945 14.1875 33.78125 C 13.924074 34.138186 13.702573 34.545196 13.5625 35 L 13.3125 35 C 11.031019 35 9 36.711765 9 39 C 9 40.40573 9.7548039 41.605106 10.875 42.3125 C 9.5652867 43.665034 8.5757997 45.089855 8.15625 46.4375 C 7.9025688 47.252355 7.8416926 48.111048 8.3125 48.875 C 8.7833074 49.638952 9.6895833 50 10.6875 50 L 39.3125 50 C 40.291801 50 41.207364 49.641971 41.65625 48.875 C 42.105136 48.108029 42.033227 47.24688 41.78125 46.4375 C 41.364022 45.097313 40.374259 43.668758 39.09375 42.3125 C 40.225295 41.60673 41 40.41445 41 39 C 41 36.711765 38.94989 35 36.59375 35 L 36.4375 35 C 36.297594 34.54506 36.076453 34.137757 35.8125 33.78125 C 35.367098 33.179669 34.849106 32.680424 34.28125 32.15625 C 33.216521 31.173423 32.03545 30.090857 31.09375 28.25 C 32.22252 27.545143 33 26.398305 33 25 C 33 24.362518 32.813224 23.799561 32.53125 23.28125 C 34.013946 21.6845 35 19.330769 35 16.5 C 35 14.506566 34.043182 12.533523 32.8125 10.6875 C 31.581818 8.8414772 30.050479 7.1129792 28.71875 5.78125 A 1.0001 1.0001 0 0 0 28.625 5.6875 C 28.865185 5.1749937 29 4.6000304 29 4 C 29 1.8027056 27.197294 0 25 0 z M 25 2 C 26.116414 2 27 2.883586 27 4 C 27 5.116414 26.116414 6 25 6 C 23.883586 6 23 5.116414 23 4 C 23 2.883586 23.883586 2 25 2 z M 22.6875 7.21875 C 23.346678 7.6972906 24.129273 8 25 8 C 25.863604 8 26.656293 7.7214488 27.3125 7.25 C 28.574121 8.5136526 30.045813 10.115595 31.15625 11.78125 C 32.275568 13.460227 33 15.193434 33 16.5 C 33 18.794817 32.219884 20.57752 31.15625 21.78125 C 30.394821 21.289277 29.465805 21 28.5 21 L 21.5 21 C 20.559401 21 19.656295 21.281637 18.90625 21.75 C 17.777725 20.441841 17 18.802424 17 16.40625 C 17 15.099684 17.74513 13.364464 18.875 11.6875 C 19.978389 10.04984 21.399632 8.4687108 22.6875 7.21875 z M 21.5 23 L 28.5 23 C 29.94386 23 31 23.927451 31 25 C 31 26.072549 29.94386 27 28.5 27 L 21.5 27 C 20.05614 27 19 26.072549 19 25 C 19 23.927451 20.05614 23 21.5 23 z M 20.75 28.9375 C 20.995393 28.974711 21.247343 29 21.5 29 L 28.5 29 C 28.742192 29 28.983142 28.97174 29.21875 28.9375 C 30.338699 31.223167 31.803581 32.607152 32.90625 33.625 C 33.475894 34.150826 33.942277 34.595331 34.21875 34.96875 C 34.229005 34.982601 34.240231 34.986432 34.25 35 L 15.75 35 C 15.759797 34.986356 15.770962 34.98269 15.78125 34.96875 C 16.058612 34.59293 16.523021 34.158099 17.09375 33.625 C 18.184251 32.6064 19.637557 31.215324 20.75 28.9375 z M 13.3125 37 L 36.59375 37 C 38.03761 37 39 37.888235 39 39 C 39 40.111765 38.006019 41 36.6875 41 L 13.3125 41 C 11.993981 41 11 40.111765 11 39 C 11 37.888235 11.993981 37 13.3125 37 z M 13.03125 42.96875 C 13.125567 42.974643 13.217179 43 13.3125 43 L 36.6875 43 C 36.772316 43 36.853467 42.973423 36.9375 42.96875 C 38.427819 44.374667 39.52503 46.007482 39.84375 47.03125 C 40.004273 47.54687 39.960489 47.804471 39.9375 47.84375 C 39.914511 47.883029 39.883199 48 39.3125 48 L 10.6875 48 C 10.085417 48 10.026068 47.886048 10 47.84375 C 9.973932 47.80145 9.903681 47.541395 10.0625 47.03125 C 10.377869 46.018248 11.494387 44.374876 13.03125 42.96875 z"></path>

</svg>


</svg>
  </g>
  <g class="row" data-row="d">
    <rect x="30" y="0" width="10px" height="10px" class="field black" data-coords="3,0" data-field="d8"/>
    <svg xmlns="http://www.w3.org/2000/svg" width="7.5px" height="7.5px" x="31.25px" y="1.25px">

<svg xmlns="http://www.w3.org/2000/svg" width="100%" height="100%" viewBox="0 0 50 50">
    <path d="M 25 0 C 22.794 0 21 1.794 21 4 C 21 5.001 21.39 5.89175 22 6.59375 C 21.215 7.31975 19.82425 8.774 18.78125 10.875 C 17.98025 9.959 17.09625 9.4045 16.40625 9.0625 C 16.77325 8.4575 17 7.757 17 7 C 17 4.794 15.206 3 13 3 C 10.794 3 9 4.794 9 7 C 9 8.862 10.274 10.432 12 10.875 C 12.112 16.198 15.221 19 21 19 L 29 19 C 34.779 19 37.888 16.198 38 10.875 C 39.727 10.432 41 8.862 41 7 C 41 4.794 39.206 3 37 3 C 34.794 3 33 4.794 33 7 C 33 7.757 33.22675 8.4575 33.59375 9.0625 C 32.90375 9.4035 32.01975 9.959 31.21875 10.875 C 30.17575 8.774 28.785 7.31975 28 6.59375 C 28.61 5.89175 29 5.001 29 4 C 29 1.794 27.206 0 25 0 z M 25 2 C 26.103 2 27 2.897 27 4 C 27 5.103 26.103 6 25 6 C 23.897 6 23 5.103 23 4 C 23 2.897 23.897 2 25 2 z M 13 5 C 14.103 5 15 5.897 15 7 C 15 8.103 14.103 9 13 9 C 11.897 9 11 8.103 11 7 C 11 5.897 11.897 5 13 5 z M 37 5 C 38.103 5 39 5.897 39 7 C 39 8.103 38.103 9 37 9 C 35.897 9 35 8.103 35 7 C 35 5.897 35.897 5 37 5 z M 20.84375 21 C 20.83775 21.063 20.85075 21.1245 20.84375 21.1875 C 20.81375 21.4625 20.75675 21.73 20.71875 22 L 17.5 22 C 15.6 22 14 23.3 14 25 C 14 26.7 15.6 28 17.5 28 L 32.5 28 C 34.4 28 36 26.7 36 25 C 36 23.3 34.4 22 32.5 22 L 29.3125 22 C 29.2515 21.705 29.18425 21.41125 29.15625 21.15625 C 29.15025 21.09925 29.16225 21.057 29.15625 21 C 29.10725 21.001 29.05 21 29 21 L 21 21 C 20.95 21 20.89375 21.001 20.84375 21 z M 16.96875 29.96875 C 16.58075 30.36075 16.21075 30.7245 15.84375 31.0625 C 14.38175 32.4085 13 33.691 13 36 L 12.5 36 C 10.6 36 9 37.3 9 39 C 9 40.7 10.6 42 12.5 42 L 37.5 42 C 39.4 42 41 40.7 41 39 C 41 37.3 39.4 36 37.5 36 L 37 36 C 37 33.691 35.61825 32.4095 34.15625 31.0625 C 33.78925 30.7245 33.388 30.36075 33 29.96875 C 32.831 29.98275 32.674 30 32.5 30 L 17.5 30 C 17.326 30 17.13875 29.98175 16.96875 29.96875 z M 9.90625 43.40625 C 8.52925 45.11725 7.557 47.06425 8.125 48.53125 C 8.337 49.08225 8.9415 50 10.6875 50 L 39.3125 50 C 40.9955 50 41.6015 49.0985 41.8125 48.5625 C 42.3875 47.1075 41.4205 45.13625 40.0625 43.40625 C 39.2945 43.77625 38.428 44 37.5 44 L 12.5 44 C 11.558 44 10.68125 43.78725 9.90625 43.40625 z"></path>
</svg>


</svg>
    <rect x="30" y="10" width="10px" height="10px" class="field white" data-coords="3,1" data-field="d7"/>
    <svg xmlns="http://www.w3.org/2000/svg" width="7.5px" height="7.5px" x="31.25px" y="11.25px">

<svg xmlns="http://www.w3.org/2000/svg" width="100%" height="100%" viewBox="0 0 50 50">
    <path d="M 25 8 C 21.134007 8 18 11.134007 18 15 C 18 18.865993 21.134007 22 25 22 C 28.865993 22 32 18.865993 32 15 C 32 11.134007 28.865993 8 25 8 z M 25 22 L 20.5 22 C 18.6 22 17 23.3 17 25 C 17 26.7 18.6 28 20.5 28 L 29.5 28 C 31.4 28 33 26.7 33 25 C 33 23.3 31.4 22 29.5 22 L 25 22 z M 17.9375 29.40625 C 17.5415 29.96325 17.1195 30.4865 16.6875 30.9375 C 15.2335 32.4525 13 33.781 13 36 L 12.5 36 C 10.6 36 9 37.3 9 39 C 9 40.7 10.6 42 12.5 42 L 37.5 42 C 39.4 42 41 40.7 41 39 C 41 37.3 39.4 36 37.5 36 L 37 36 C 37 33.547 34.59375 32.4685 32.84375 30.4375 C 32.67475 30.2425 32.3755 29.84825 32.0625 29.40625 C 31.2965 29.77425 30.425 30 29.5 30 L 20.5 30 C 19.574 30 18.7035 29.77525 17.9375 29.40625 z M 9.90625 43.40625 C 8.52925 45.11725 7.557 47.06425 8.125 48.53125 C 8.337 49.08225 8.9415 50 10.6875 50 L 39.3125 50 C 40.9955 50 41.6015 49.0985 41.8125 48.5625 C 42.3875 47.1075 41.4205 45.13625 40.0625 43.40625 C 39.2945 43.77625 38.428 44 37.5 44 L 12.5 44 C 11.558 44 10.68125 43.78725 9.90625 43.40625 z"></path>
</svg>


</svg>
    <rect x="30" y="20" width="10px" height="10px" class="field black" data-coords="3,2" data-field="d6"/>
    !!!
    <rect x="30" y="30" width="10px" height="10px" class="field white" data-coords="3,3" data-field="d5"/>
    !!!
    <rect x="30" y="40" width="10px" height="10px" class="field black" data-coords="3,4" data-field="d4"/>
    !!!
    <rect x="30" y="50" width="10px" height="10px" class="field white" data-coords="3,5" data-field="d3"/>
    !!!
    <rect x="30" y="60" width="10px" height="10px" class="field black" data-coords="3,6" data-field="d2"/>
    <svg xmlns="http://www.w3.org/2000/svg" width="7.5px" height="7.5px" x="31.25px" y="61.25px">

<svg xmlns="http://www.w3.org/2000/svg" width="100%" height="100%" viewBox="0 0 50 50">
  <circle cx="25px" cy="15px" r="7px" style="fill: #fff;"/>
  <ellipse cx="25px" cy="25px" rx="7px" ry="3px" style="fill: #fff;"/>
  <polygon points="20,28 30,28 37,36 13,36" style="fill: #fff;"/>
  <rect x="10.5px" y="36.5px" width="29px" height="5px" rx="3px" ry="3px" style="fill: #fff;"/>
  <polygon points="12,42 38,42 41,49 9,49" style="fill: #fff;"/>

  <path d="M 25 7 C 20.593567 7 17 10.593567 17 15 C 17 17.533699 18.183641 19.782446 20.03125 21.25 C 18.309476 21.784375 17 23.201243 17 25 C 17 26.301025 17.690466 27.405163 18.71875 28.125 C 17.756716 29.998307 16.541527 31.127935 15.4375 32.125 C 14.844734 32.660337 14.277954 33.144418 13.8125 33.75 C 13.530937 34.11633 13.300544 34.557746 13.15625 35.03125 C 10.912472 35.125016 9 36.806031 9 39 C 9 40.379689 9.7576117 41.566446 10.875 42.28125 C 9.5868435 43.63352 8.5990196 45.053951 8.1875 46.40625 C 7.9389705 47.222945 7.8829136 48.109048 8.34375 48.875 C 8.8045864 49.640952 9.7267759 50 10.71875 50 L 39.28125 50 C 40.27341 50 41.228007 49.642393 41.6875 48.875 C 42.146993 48.107607 42.063276 47.222535 41.8125 46.40625 C 41.397755 45.056241 40.418161 43.632127 39.125 42.28125 C 40.242388 41.566446 41 40.379689 41 39 C 41 36.806031 39.088164 35.125016 36.84375 35.03125 C 36.698949 34.557257 36.467488 34.115492 36.1875 33.75 C 35.72465 33.145803 35.152578 32.657783 34.5625 32.125 C 33.456104 31.126033 32.244405 30.00275 31.28125 28.125 C 32.309534 27.405163 33 26.301025 33 25 C 33 23.200926 31.690355 21.784284 29.96875 21.25 C 31.816359 19.782446 33 17.533699 33 15 C 33 10.593567 29.406433 7 25 7 z M 25 9 C 28.325553 9 31 11.674447 31 15 C 31 18.325553 28.325553 21 25 21 C 21.674447 21 19 18.325553 19 15 C 19 11.674447 21.674447 9 25 9 z M 21.5 23 L 25 23 L 28.5 23 C 29.968232 23 31 23.97524 31 25 C 31 26.025163 29.969472 27 28.5 27 L 21.5 27 C 20.030528 27 19 26.025163 19 25 C 19 23.974837 20.030528 23 21.5 23 z M 20.53125 28.90625 C 20.848243 28.969416 21.166813 29 21.5 29 L 28.5 29 C 28.822987 29 29.129591 28.965696 29.4375 28.90625 C 30.579454 31.185766 32.083218 32.599725 33.21875 33.625 C 33.813047 34.161592 34.302631 34.588728 34.59375 34.96875 C 34.604381 34.982627 34.614836 34.986405 34.625 35 L 15.375 35 C 15.385243 34.986345 15.395527 34.982701 15.40625 34.96875 C 15.69989 34.586707 16.183141 34.133913 16.78125 33.59375 C 17.912115 32.572446 19.393365 31.16422 20.53125 28.90625 z M 13.34375 37 L 36.65625 37 C 38.010558 37 39 37.945047 39 39 C 39 40.054953 38.009293 41 36.65625 41 L 13.34375 41 C 11.990707 41 11 40.054953 11 39 C 11 37.945047 11.990707 37 13.34375 37 z M 13 42.96875 C 13.116414 42.977589 13.22551 43 13.34375 43 L 36.65625 43 C 36.77449 43 36.883586 42.977589 37 42.96875 C 38.488273 44.361194 39.592909 45.980065 39.90625 47 C 40.065224 47.517465 39.99632 47.797706 39.96875 47.84375 C 39.94118 47.889794 39.86809 48 39.28125 48 L 10.71875 48 C 10.132224 48 10.05982 47.891236 10.03125 47.84375 C 10.00268 47.79626 9.936405 47.517055 10.09375 47 C 10.403881 45.980875 11.514711 44.360797 13 42.96875 z"></path>
</svg>


</svg>
    <rect x="30" y="70" width="10px" height="10px" class="field white" data-coords="3,7" data-field="d1"/>
    <svg xmlns="http://www.w3.org/2000/svg" width="7.5px" height="7.5px" x="31.25px" y="71.25px">

<svg xmlns="http://www.w3.org/2000/svg" width="100%" height="100%" viewBox="0 0 50 50">
  <ellipse cx="25px" cy="25px" rx="10.5px" ry="3px" style="fill: #fff;"/>
  <polygon points="20,28 30,28 37,36 13,36" style="fill: #fff;"/>
  <rect x="10.5px" y="36.5px" width="29px" height="5px" rx="3px" ry="3px" style="fill: #fff;"/>
  <polygon points="12,42 38,42 41,49 9,49" style="fill: #fff;"/>
  <circle cx="25px" cy="4px" r="3px" style="fill: #fff;"/>
  <circle cx="13px" cy="7px" r="3px" style="fill: #fff;"/>
  <circle cx="37px" cy="7px" r="3px" style="fill: #fff;"/>
  <polygon points="27,7 31,12 34.5,10 37,10 34.5,17.5 15.5,17.5 13,10 15.5,10 19,12 23,7" style="fill: #fff;"/>
  <rect x="22px" y="18px" width="6px" height="4px" style="fill: #fff;"/>

  <path d="M 25 0 C 22.802706 0 21 1.8027056 21 4 C 21 5.0122868 21.403716 5.917894 22.03125 6.625 C 21.270734 7.3679477 19.879674 8.8534234 18.8125 11.03125 C 18.000354 10.087131 17.077734 9.5004297 16.375 9.125 C 16.769238 8.5058609 17 7.7831383 17 7 C 17 4.8027056 15.197294 3 13 3 C 10.802706 3 9 4.8027056 9 7 C 9 8.8531981 10.280158 10.396684 12 10.84375 C 12.048539 13.322807 12.74796 15.415607 14.25 16.84375 C 15.802816 18.320171 18.091212 18.995062 20.96875 19 C 20.948883 19.708524 20.937337 20.378729 20.875 21 L 18.5 21 C 16.103472 21 14 22.713163 14 25 C 14 27.093123 15.77006 28.710582 17.90625 28.96875 C 17.040631 30.026918 16.111079 30.806158 15.25 31.625 C 14.296881 32.531368 13.418244 33.60688 13.125 35.03125 C 10.89498 35.139669 9 36.816353 9 39 C 9 40.379689 9.7576117 41.566446 10.875 42.28125 C 9.5868435 43.63352 8.5990196 45.053951 8.1875 46.40625 C 7.9389705 47.222945 7.8829136 48.109048 8.34375 48.875 C 8.8045864 49.640952 9.7267759 50 10.71875 50 L 39.28125 50 C 40.27341 50 41.228007 49.642393 41.6875 48.875 C 42.146993 48.107607 42.063276 47.222535 41.8125 46.40625 C 41.397755 45.056241 40.418161 43.632127 39.125 42.28125 C 40.242388 41.566446 41 40.379689 41 39 C 41 36.816353 39.105641 35.139669 36.875 35.03125 C 36.581174 33.607645 35.700895 32.529977 34.75 31.625 C 33.89093 30.807414 32.959949 30.026346 32.09375 28.96875 C 34.22994 28.710582 36 27.093123 36 25 C 36 22.71276 33.895768 21 31.5 21 L 29.15625 21 C 29.093564 20.378746 29.052056 19.706108 29.03125 19 C 31.908788 18.995062 34.197184 18.320171 35.75 16.84375 C 37.25204 15.415607 37.951461 13.322807 38 10.84375 C 39.719842 10.396684 41 8.8531981 41 7 C 41 4.8027056 39.197294 3 37 3 C 34.802706 3 33 4.8027056 33 7 C 33 7.7831383 33.230762 8.5058609 33.625 9.125 C 32.922266 9.5004297 31.999646 10.087131 31.1875 11.03125 C 30.120326 8.8534234 28.729266 7.3679477 27.96875 6.625 C 28.596284 5.917894 29 5.0122868 29 4 C 29 1.8027056 27.197294 0 25 0 z M 25 2 C 26.116414 2 27 2.883586 27 4 C 27 5.116414 26.116414 6 25 6 C 23.883586 6 23 5.116414 23 4 C 23 2.883586 23.883586 2 25 2 z M 13 5 C 14.116414 5 15 5.883586 15 7 C 15 8.116414 14.116414 9 13 9 C 11.883586 9 11 8.116414 11 7 C 11 5.883586 11.883586 5 13 5 z M 37 5 C 38.116414 5 39 5.883586 39 7 C 39 8.116414 38.116414 9 37 9 C 35.883586 9 35 8.116414 35 7 C 35 5.883586 35.883586 5 37 5 z M 23.6875 7.75 C 24.099071 7.8943684 24.541205 8 25 8 C 25.458795 8 25.900929 7.8943684 26.3125 7.75 C 26.637291 8.0127459 28.985363 10.001711 30.0625 13.3125 A 1.0001 1.0001 0 0 0 31.90625 13.4375 C 33.077226 11.050181 35.21875 10.5625 35.21875 10.5625 C 35.468263 10.688354 35.724575 10.772154 36 10.84375 C 35.954472 12.942239 35.402319 14.398222 34.375 15.375 C 33.301291 16.395886 31.57849 17 29 17 L 28.21875 17 A 1.0001 1.0001 0 0 0 27.90625 16.96875 A 1.0001 1.0001 0 0 0 27.8125 17 L 22.21875 17 A 1.0001 1.0001 0 0 0 21.90625 16.96875 A 1.0001 1.0001 0 0 0 21.8125 17 L 21 17 C 18.42151 17 16.698709 16.395886 15.625 15.375 C 14.597681 14.398222 14.045528 12.942239 14 10.84375 C 14.275425 10.772154 14.531737 10.688354 14.78125 10.5625 C 14.78125 10.5625 16.922774 11.050181 18.09375 13.4375 A 1.0001 1.0001 0 0 0 19.9375 13.3125 C 21.014637 10.001711 23.362709 8.0127459 23.6875 7.75 z M 22.96875 19 L 27.03125 19 C 27.047921 19.698989 27.067784 20.37195 27.125 21 L 22.84375 21 C 22.90461 20.370113 22.945435 19.701093 22.96875 19 z M 18.5 23 L 31.5 23 C 32.968232 23 34 23.97524 34 25 C 34 26.025163 32.969472 27 31.5 27 L 18.5 27 C 17.030528 27 16 26.025163 16 25 C 16 23.974837 17.030528 23 18.5 23 z M 20.34375 29 L 29.65625 29 C 30.902448 30.920862 32.346242 32.11467 33.375 33.09375 C 34.115742 33.798722 34.61021 34.322143 34.84375 35 L 15.15625 35 C 15.388974 34.322627 15.88179 33.800504 16.625 33.09375 C 17.657185 32.112196 19.0973 30.928486 20.34375 29 z M 13.34375 37 L 36.65625 37 C 38.010558 37 39 37.945047 39 39 C 39 40.054953 38.009293 41 36.65625 41 L 13.34375 41 C 11.990707 41 11 40.054953 11 39 C 11 37.945047 11.990707 37 13.34375 37 z M 13 42.96875 C 13.116414 42.977589 13.22551 43 13.34375 43 L 36.65625 43 C 36.77449 43 36.883586 42.977589 37 42.96875 C 38.488273 44.361194 39.592909 45.980065 39.90625 47 C 40.065224 47.517465 39.99632 47.797706 39.96875 47.84375 C 39.94118 47.889794 39.86809 48 39.28125 48 L 10.71875 48 C 10.132224 48 10.05982 47.891236 10.03125 47.84375 C 10.00268 47.79626 9.936405 47.517055 10.09375 47 C 10.403881 45.980875 11.514711 44.360797 13 42.96875 z"></path>

</svg>


</svg>
  </g>
  <g class="row" data-row="e">
    <rect x="40" y="0" width="10px" height="10px" class="field white" data-coords="4,0" data-field="e8"/>
    <svg xmlns="http://www.w3.org/2000/svg" width="7.5px" height="7.5px" x="41.25px" y="1.25px">

<svg xmlns="http://www.w3.org/2000/svg" width="100%" height="100%" viewBox="0 0 26 26">
    <path d="M 13 0.1875 C 11.998708 0.1875 11.1875 0.99870777 11.1875 2 C 11.1875 3.0012922 11.998708 3.8125 13 3.8125 C 14.001292 3.8125 14.8125 3.0012922 14.8125 2 C 14.8125 0.99870777 14.001292 0.1875 13 0.1875 z M 5.8125 4 C 4.4415 4 5.12725 6.08775 6.53125 7.71875 L 7.375 8.71875 C 8.054 9.50675 8.91275 10 9.46875 10 L 16.53125 10 C 17.08725 10 17.948 9.50775 18.625 8.71875 L 19.46875 7.71875 C 20.87075 6.08775 21.5565 4 20.1875 4 L 5.8125 4 z M 9 11 C 7.896 11 7 11.672 7 12.5 C 7 13.328 7.896 14 9 14 L 10.65625 14 C 9.6990961 17.722985 7 17.352744 7 19 L 6 19 C 4.896 19 4 19.672 4 20.5 C 4 21.328 4.896 22 6 22 L 6.25 22 L 5.9375 22.28125 C 4.1325 23.91225 3.235 26 5 26 L 21 26 C 22.766 26 21.8705 23.91225 20.0625 22.28125 L 19.75 22 L 20 22 C 21.104 22 22 21.328 22 20.5 C 22 19.672 21.104 19 20 19 L 19 19 C 19 17.352744 16.300904 17.722985 15.34375 14 L 17 14 C 18.104 14 19 13.328 19 12.5 C 19 11.672 18.104 11 17 11 L 15 11 L 11 11 L 9 11 z"></path>
</svg>


</svg>
    <rect x="40" y="10" width="10px" height="10px" class="field black" data-coords="4,1" data-field="e7"/>
    <svg xmlns="http://www.w3.org/2000/svg" width="7.5px" height="7.5px" x="41.25px" y="11.25px">

<svg xmlns="http://www.w3.org/2000/svg" width="100%" height="100%" viewBox="0 0 50 50">
    <path d="M 25 8 C 21.134007 8 18 11.134007 18 15 C 18 18.865993 21.134007 22 25 22 C 28.865993 22 32 18.865993 32 15 C 32 11.134007 28.865993 8 25 8 z M 25 22 L 20.5 22 C 18.6 22 17 23.3 17 25 C 17 26.7 18.6 28 20.5 28 L 29.5 28 C 31.4 28 33 26.7 33 25 C 33 23.3 31.4 22 29.5 22 L 25 22 z M 17.9375 29.40625 C 17.5415 29.96325 17.1195 30.4865 16.6875 30.9375 C 15.2335 32.4525 13 33.781 13 36 L 12.5 36 C 10.6 36 9 37.3 9 39 C 9 40.7 10.6 42 12.5 42 L 37.5 42 C 39.4 42 41 40.7 41 39 C 41 37.3 39.4 36 37.5 36 L 37 36 C 37 33.547 34.59375 32.4685 32.84375 30.4375 C 32.67475 30.2425 32.3755 29.84825 32.0625 29.40625 C 31.2965 29.77425 30.425 30 29.5 30 L 20.5 30 C 19.574 30 18.7035 29.77525 17.9375 29.40625 z M 9.90625 43.40625 C 8.52925 45.11725 7.557 47.06425 8.125 48.53125 C 8.337 49.08225 8.9415 50 10.6875 50 L 39.3125 50 C 40.9955 50 41.6015 49.0985 41.8125 48.5625 C 42.3875 47.1075 41.4205 45.13625 40.0625 43.40625 C 39.2945 43.77625 38.428 44 37.5 44 L 12.5 44 C 11.558 44 10.68125 43.78725 9.90625 43.40625 z"></path>
</svg>


</svg>
    <rect x="40" y="20" width="10px" height="10px" class="field white" data-coords="4,2" data-field="e6"/>
    !!!
    <rect x="40" y="30" width="10px" height="10px" class="field black" data-coords="4,3" data-field="e5"/>
    !!!
    <rect x="40" y="40" width="10px" height="10px" class="field white" data-coords="4,4" data-field="e4"/>
    !!!
    <rect x="40" y="50" width="10px" height="10px" class="field black" data-coords="4,5" data-field="e3"/>
    !!!
    <rect x="40" y="60" width="10px" height="10px" class="field white" data-coords="4,6" data-field="e2"/>
    <svg xmlns="http://www.w3.org/2000/svg" width="7.5px" height="7.5px" x="41.25px" y="61.25px">

<svg xmlns="http://www.w3.org/2000/svg" width="100%" height="100%" viewBox="0 0 50 50">
  <circle cx="25px" cy="15px" r="7px" style="fill: #fff;"/>
  <ellipse cx="25px" cy="25px" rx="7px" ry="3px" style="fill: #fff;"/>
  <polygon points="20,28 30,28 37,36 13,36" style="fill: #fff;"/>
  <rect x="10.5px" y="36.5px" width="29px" height="5px" rx="3px" ry="3px" style="fill: #fff;"/>
  <polygon points="12,42 38,42 41,49 9,49" style="fill: #fff;"/>

  <path d="M 25 7 C 20.593567 7 17 10.593567 17 15 C 17 17.533699 18.183641 19.782446 20.03125 21.25 C 18.309476 21.784375 17 23.201243 17 25 C 17 26.301025 17.690466 27.405163 18.71875 28.125 C 17.756716 29.998307 16.541527 31.127935 15.4375 32.125 C 14.844734 32.660337 14.277954 33.144418 13.8125 33.75 C 13.530937 34.11633 13.300544 34.557746 13.15625 35.03125 C 10.912472 35.125016 9 36.806031 9 39 C 9 40.379689 9.7576117 41.566446 10.875 42.28125 C 9.5868435 43.63352 8.5990196 45.053951 8.1875 46.40625 C 7.9389705 47.222945 7.8829136 48.109048 8.34375 48.875 C 8.8045864 49.640952 9.7267759 50 10.71875 50 L 39.28125 50 C 40.27341 50 41.228007 49.642393 41.6875 48.875 C 42.146993 48.107607 42.063276 47.222535 41.8125 46.40625 C 41.397755 45.056241 40.418161 43.632127 39.125 42.28125 C 40.242388 41.566446 41 40.379689 41 39 C 41 36.806031 39.088164 35.125016 36.84375 35.03125 C 36.698949 34.557257 36.467488 34.115492 36.1875 33.75 C 35.72465 33.145803 35.152578 32.657783 34.5625 32.125 C 33.456104 31.126033 32.244405 30.00275 31.28125 28.125 C 32.309534 27.405163 33 26.301025 33 25 C 33 23.200926 31.690355 21.784284 29.96875 21.25 C 31.816359 19.782446 33 17.533699 33 15 C 33 10.593567 29.406433 7 25 7 z M 25 9 C 28.325553 9 31 11.674447 31 15 C 31 18.325553 28.325553 21 25 21 C 21.674447 21 19 18.325553 19 15 C 19 11.674447 21.674447 9 25 9 z M 21.5 23 L 25 23 L 28.5 23 C 29.968232 23 31 23.97524 31 25 C 31 26.025163 29.969472 27 28.5 27 L 21.5 27 C 20.030528 27 19 26.025163 19 25 C 19 23.974837 20.030528 23 21.5 23 z M 20.53125 28.90625 C 20.848243 28.969416 21.166813 29 21.5 29 L 28.5 29 C 28.822987 29 29.129591 28.965696 29.4375 28.90625 C 30.579454 31.185766 32.083218 32.599725 33.21875 33.625 C 33.813047 34.161592 34.302631 34.588728 34.59375 34.96875 C 34.604381 34.982627 34.614836 34.986405 34.625 35 L 15.375 35 C 15.385243 34.986345 15.395527 34.982701 15.40625 34.96875 C 15.69989 34.586707 16.183141 34.133913 16.78125 33.59375 C 17.912115 32.572446 19.393365 31.16422 20.53125 28.90625 z M 13.34375 37 L 36.65625 37 C 38.010558 37 39 37.945047 39 39 C 39 40.054953 38.009293 41 36.65625 41 L 13.34375 41 C 11.990707 41 11 40.054953 11 39 C 11 37.945047 11.990707 37 13.34375 37 z M 13 42.96875 C 13.116414 42.977589 13.22551 43 13.34375 43 L 36.65625 43 C 36.77449 43 36.883586 42.977589 37 42.96875 C 38.488273 44.361194 39.592909 45.980065 39.90625 47 C 40.065224 47.517465 39.99632 47.797706 39.96875 47.84375 C 39.94118 47.889794 39.86809 48 39.28125 48 L 10.71875 48 C 10.132224 48 10.05982 47.891236 10.03125 47.84375 C 10.00268 47.79626 9.936405 47.517055 10.09375 47 C 10.403881 45.980875 11.514711 44.360797 13 42.96875 z"></path>
</svg>


</svg>
    <rect x="40" y="70" width="10px" height="10px" class="field black" data-coords="4,7" data-field="e1"/>
    <svg xmlns="http://www.w3.org/2000/svg" width="7.5px" height="7.5px" x="41.25px" y="71.25px">

<svg xmlns="http://www.w3.org/2000/svg" width="100%" height="100%" viewBox="0 0 50 50">
  <ellipse cx="25px" cy="25px" rx="10.5px" ry="3px" style="fill: #fff;"/>
  <polygon points="20,28 30,28 37,36 13,36" style="fill: #fff;"/>
  <rect x="10.5px" y="36.5px" width="29px" height="5px" rx="3px" ry="3px" style="fill: #fff;"/>
  <polygon points="12,42 38,42 41,49 9,49" style="fill: #fff;"/>
  <rect x="22px" y="17px" width="6px" height="5px" style="fill: #fff;"/>
  <polygon points="11,7 39,7 36,14 32,17 18,17 14,14" style="fill: #fff;"/>
  <circle cx="25px" cy="4px" r="3px" style="fill: #fff;"/>

  <path d="M 25 0 C 22.802706 0 21 1.8027056 21 4 C 21 4.7479252 21.231554 5.4302929 21.59375 6.03125 L 12.3125 6.03125 C 11.475107 6.03125 10.634746 6.4549484 10.28125 7.15625 C 9.9277542 7.8575516 9.9980354 8.5797221 10.1875 9.3125 C 10.564752 10.771568 11.560825 12.395949 12.875 13.84375 L 12.875 13.875 L 14.375 15.53125 C 15.715278 17.001413 17.296201 17.96875 18.8125 17.96875 L 21 17.96875 A 1.0001 1.0001 0 0 0 21 18 C 21 19.09858 20.966172 20.091352 20.875 21 L 18.5 21 C 16.103472 21 14 22.713163 14 25 C 14 27.093123 15.77006 28.710582 17.90625 28.96875 C 17.040631 30.026918 16.111079 30.806158 15.25 31.625 C 14.296881 32.531368 13.418244 33.60688 13.125 35.03125 C 10.89498 35.139669 9 36.816353 9 39 C 9 40.379689 9.7576117 41.566446 10.875 42.28125 C 9.5868435 43.63352 8.5990196 45.053951 8.1875 46.40625 C 7.9389705 47.222945 7.8829136 48.109048 8.34375 48.875 C 8.8045864 49.640952 9.7267759 50 10.71875 50 L 39.28125 50 C 40.27341 50 41.228007 49.642393 41.6875 48.875 C 42.146993 48.107607 42.063276 47.222535 41.8125 46.40625 C 41.397755 45.056241 40.418161 43.632127 39.125 42.28125 C 40.242388 41.566446 41 40.379689 41 39 C 41 36.816353 39.105641 35.139669 36.875 35.03125 C 36.581174 33.607645 35.700895 32.529977 34.75 31.625 C 33.89093 30.807414 32.959949 30.026346 32.09375 28.96875 C 34.22994 28.710582 36 27.093123 36 25 C 36 22.71276 33.895768 21 31.5 21 L 29.15625 21 C 29.064277 20.088499 29 19.103926 29 18 A 1.0001 1.0001 0 0 0 29 17.96875 L 31.1875 17.96875 C 32.704252 17.96875 34.287193 17.004631 35.625 15.53125 L 37.125 13.875 C 38.44564 12.421761 39.436943 10.778457 39.8125 9.3125 C 40.000279 8.5795215 40.073122 7.8565301 39.71875 7.15625 C 39.364378 6.4559699 38.524586 6.03125 37.6875 6.03125 L 28.40625 6.03125 C 28.768446 5.4302929 29 4.7479252 29 4 C 29 1.8027056 27.197294 0 25 0 z M 25 2 C 26.116414 2 27 2.883586 27 4 C 27 5.116414 26.116414 6 25 6 C 23.883586 6 23 5.116414 23 4 C 23 2.883586 23.883586 2 25 2 z M 12.3125 7.96875 L 24.71875 7.96875 C 24.812189 7.9753797 24.904971 8 25 8 C 25.095029 8 25.187811 7.9753797 25.28125 7.96875 L 37.6875 7.96875 C 38.057914 7.96875 37.980153 7.99203 38 8.03125 C 38.01985 8.07047 38.06035 8.3642285 37.9375 8.84375 C 37.691807 9.802793 36.86811 11.297739 35.71875 12.5625 L 34.1875 14.21875 C 33.137307 15.375369 31.632748 16.03125 31.1875 16.03125 L 18.8125 16.03125 C 18.368799 16.03125 16.866222 15.374587 15.8125 14.21875 L 14.3125 12.5625 C 13.160422 11.297309 12.310571 9.8031943 12.0625 8.84375 C 11.938465 8.3640279 11.980746 8.0694484 12 8.03125 C 12.01925 7.993052 11.94139 7.96875 12.3125 7.96875 z M 23 17.96875 L 27 17.96875 A 1.0001 1.0001 0 0 0 27 18 C 27 19.087884 27.040476 20.072196 27.125 21 L 22.84375 21 C 22.93335 20.07266 23 19.082937 23 18 A 1.0001 1.0001 0 0 0 23 17.96875 z M 18.5 23 L 31.5 23 C 32.968232 23 34 23.97524 34 25 C 34 26.025163 32.969472 27 31.5 27 L 18.5 27 C 17.030528 27 16 26.025163 16 25 C 16 23.974837 17.030528 23 18.5 23 z M 20.34375 29 L 29.65625 29 C 30.902448 30.920862 32.346242 32.11467 33.375 33.09375 C 34.115742 33.798722 34.61021 34.322143 34.84375 35 L 15.15625 35 C 15.388974 34.322627 15.88179 33.800504 16.625 33.09375 C 17.657185 32.112196 19.0973 30.928486 20.34375 29 z M 13.34375 37 L 36.65625 37 C 38.010558 37 39 37.945047 39 39 C 39 40.054953 38.009293 41 36.65625 41 L 13.34375 41 C 11.990707 41 11 40.054953 11 39 C 11 37.945047 11.990707 37 13.34375 37 z M 13 42.96875 C 13.116414 42.977589 13.22551 43 13.34375 43 L 36.65625 43 C 36.77449 43 36.883586 42.977589 37 42.96875 C 38.488273 44.361194 39.592909 45.980065 39.90625 47 C 40.065224 47.517465 39.99632 47.797706 39.96875 47.84375 C 39.94118 47.889794 39.86809 48 39.28125 48 L 10.71875 48 C 10.132224 48 10.05982 47.891236 10.03125 47.84375 C 10.00268 47.79626 9.936405 47.517055 10.09375 47 C 10.403881 45.980875 11.514711 44.360797 13 42.96875 z"></path>
</svg>


</svg>
  </g>
  <g class="row" data-row="f">
    <rect x="50" y="0" width="10px" height="10px" class="field black" data-coords="5,0" data-field="f8"/>
    <svg xmlns="http://www.w3.org/2000/svg" width="7.5px" height="7.5px" x="51.25px" y="1.25px">

<svg xmlns="http://www.w3.org/2000/svg" width="100%" height="100%" viewBox="0 0 50 50">
    <path d="M 25 0 C 22.794 0 21 1.794 21 4 C 21 4.614 21.15825 5.19875 21.40625 5.71875 C 21.29525 5.80675 21.1855 5.90325 21.0625 6.03125 C 18.9935 8.08325 15 12.53325 15 16.40625 C 15 16.85525 15.04575 17.29075 15.09375 17.71875 C 15.10375 17.80575 15.113 17.88175 15.125 17.96875 C 15.404 20.00675 16.21375 21.8065 17.59375 23.3125 C 17.21475 23.7895 17 24.363 17 25 C 17 26.7 18.6 28 20.5 28 L 29.5 28 C 31.4 28 33 26.7 33 25 C 33 24.384 32.7955 23.81175 32.4375 23.34375 C 32.4715 23.31575 32.50125 23.31325 32.53125 23.28125 C 33.80625 21.90725 34.602 20.0995 34.875 18.0625 C 34.887 17.9805 34.89725 17.8955 34.90625 17.8125 C 34.95525 17.3865 35 16.942 35 16.5 C 35 12.952 31.7565 8.89225 28.9375 6.03125 C 28.8135 5.90625 28.70775 5.80175 28.59375 5.71875 C 28.84875 5.19375 29 4.622 29 4 C 29 1.794 27.206 0 25 0 z M 25 2 C 26.103 2 27 2.897 27 4 C 27 5.103 26.103 6 25 6 C 23.897 6 23 5.103 23 4 C 23 2.897 23.897 2 25 2 z M 18.125 29.5 C 17.342 30.646 16.4775 31.4495 15.6875 32.1875 C 15.0635 32.7695 14.46125 33.347 14.03125 34 C 13.65025 34.576 13.40625 35.217 13.40625 36 L 12.5 36 C 10.6 36 9 37.3 9 39 C 9 40.7 10.6 42 12.5 42 L 37.5 42 C 39.4 42 41 40.7 41 39 C 41 37.3 39.4 36 37.5 36 L 36.59375 36 C 36.59375 35.216 36.35075 34.575 35.96875 34 C 35.53175 33.343 34.91525 32.7715 34.28125 32.1875 C 33.48525 31.4525 32.61975 30.65225 31.84375 29.53125 C 31.12975 29.83725 30.339 30 29.5 30 L 20.5 30 C 19.646 30 18.847 29.816 18.125 29.5 z M 9.90625 43.40625 C 8.52925 45.11725 7.557 47.06425 8.125 48.53125 C 8.337 49.08225 8.9415 50 10.6875 50 L 39.3125 50 C 40.9955 50 41.6015 49.0985 41.8125 48.5625 C 42.3875 47.1075 41.4205 45.13625 40.0625 43.40625 C 39.2945 43.77625 38.428 44 37.5 44 L 12.5 44 C 11.558 44 10.68125 43.78725 9.90625 43.40625 z"></path>
</svg>


</svg>
    <rect x="50" y="10" width="10px" height="10px" class="field white" data-coords="5,1" data-field="f7"/>
    <svg xmlns="http://www.w3.org/2000/svg" width="7.5px" height="7.5px" x="51.25px" y="11.25px">

<svg xmlns="http://www.w3.org/2000/svg" width="100%" height="100%" viewBox="0 0 50 50">
    <path d="M 25 8 C 21.134007 8 18 11.134007 18 15 C 18 18.865993 21.134007 22 25 22 C 28.865993 22 32 18.865993 32 15 C 32 11.134007 28.865993 8 25 8 z M 25 22 L 20.5 22 C 18.6 22 17 23.3 17 25 C 17 26.7 18.6 28 20.5 28 L 29.5 28 C 31.4 28 33 26.7 33 25 C 33 23.3 31.4 22 29.5 22 L 25 22 z M 17.9375 29.40625 C 17.5415 29.96325 17.1195 30.4865 16.6875 30.9375 C 15.2335 32.4525 13 33.781 13 36 L 12.5 36 C 10.6 36 9 37.3 9 39 C 9 40.7 10.6 42 12.5 42 L 37.5 42 C 39.4 42 41 40.7 41 39 C 41 37.3 39.4 36 37.5 36 L 37 36 C 37 33.547 34.59375 32.4685 32.84375 30.4375 C 32.67475 30.2425 32.3755 29.84825 32.0625 29.40625 C 31.2965 29.77425 30.425 30 29.5 30 L 20.5 30 C 19.574 30 18.7035 29.77525 17.9375 29.40625 z M 9.90625 43.40625 C 8.52925 45.11725 7.557 47.06425 8.125 48.53125 C 8.337 49.08225 8.9415 50 10.6875 50 L 39.3125 50 C 40.9955 50 41.6015 49.0985 41.8125 48.5625 C 42.3875 47.1075 41.4205 45.13625 40.0625 43.40625 C 39.2945 43.77625 38.428 44 37.5 44 L 12.5 44 C 11.558 44 10.68125 43.78725 9.90625 43.40625 z"></path>
</svg>


</svg>
    <rect x="50" y="20" width="10px" height="10px" class="field black" data-coords="5,2" data-field="f6"/>
    !!!
    <rect x="50" y="30" width="10px" height="10px" class="field white" data-coords="5,3" data-field="f5"/>
    !!!
    <rect x="50" y="40" width="10px" height="10px" class="field black" data-coords="5,4" data-field="f4"/>
    !!!
    <rect x="50" y="50" width="10px" height="10px" class="field white" data-coords="5,5" data-field="f3"/>
    !!!
    <rect x="50" y="60" width="10px" height="10px" class="field black" data-coords="5,6" data-field="f2"/>
    <svg xmlns="http://www.w3.org/2000/svg" width="7.5px" height="7.5px" x="51.25px" y="61.25px">

<svg xmlns="http://www.w3.org/2000/svg" width="100%" height="100%" viewBox="0 0 50 50">
  <circle cx="25px" cy="15px" r="7px" style="fill: #fff;"/>
  <ellipse cx="25px" cy="25px" rx="7px" ry="3px" style="fill: #fff;"/>
  <polygon points="20,28 30,28 37,36 13,36" style="fill: #fff;"/>
  <rect x="10.5px" y="36.5px" width="29px" height="5px" rx="3px" ry="3px" style="fill: #fff;"/>
  <polygon points="12,42 38,42 41,49 9,49" style="fill: #fff;"/>

  <path d="M 25 7 C 20.593567 7 17 10.593567 17 15 C 17 17.533699 18.183641 19.782446 20.03125 21.25 C 18.309476 21.784375 17 23.201243 17 25 C 17 26.301025 17.690466 27.405163 18.71875 28.125 C 17.756716 29.998307 16.541527 31.127935 15.4375 32.125 C 14.844734 32.660337 14.277954 33.144418 13.8125 33.75 C 13.530937 34.11633 13.300544 34.557746 13.15625 35.03125 C 10.912472 35.125016 9 36.806031 9 39 C 9 40.379689 9.7576117 41.566446 10.875 42.28125 C 9.5868435 43.63352 8.5990196 45.053951 8.1875 46.40625 C 7.9389705 47.222945 7.8829136 48.109048 8.34375 48.875 C 8.8045864 49.640952 9.7267759 50 10.71875 50 L 39.28125 50 C 40.27341 50 41.228007 49.642393 41.6875 48.875 C 42.146993 48.107607 42.063276 47.222535 41.8125 46.40625 C 41.397755 45.056241 40.418161 43.632127 39.125 42.28125 C 40.242388 41.566446 41 40.379689 41 39 C 41 36.806031 39.088164 35.125016 36.84375 35.03125 C 36.698949 34.557257 36.467488 34.115492 36.1875 33.75 C 35.72465 33.145803 35.152578 32.657783 34.5625 32.125 C 33.456104 31.126033 32.244405 30.00275 31.28125 28.125 C 32.309534 27.405163 33 26.301025 33 25 C 33 23.200926 31.690355 21.784284 29.96875 21.25 C 31.816359 19.782446 33 17.533699 33 15 C 33 10.593567 29.406433 7 25 7 z M 25 9 C 28.325553 9 31 11.674447 31 15 C 31 18.325553 28.325553 21 25 21 C 21.674447 21 19 18.325553 19 15 C 19 11.674447 21.674447 9 25 9 z M 21.5 23 L 25 23 L 28.5 23 C 29.968232 23 31 23.97524 31 25 C 31 26.025163 29.969472 27 28.5 27 L 21.5 27 C 20.030528 27 19 26.025163 19 25 C 19 23.974837 20.030528 23 21.5 23 z M 20.53125 28.90625 C 20.848243 28.969416 21.166813 29 21.5 29 L 28.5 29 C 28.822987 29 29.129591 28.965696 29.4375 28.90625 C 30.579454 31.185766 32.083218 32.599725 33.21875 33.625 C 33.813047 34.161592 34.302631 34.588728 34.59375 34.96875 C 34.604381 34.982627 34.614836 34.986405 34.625 35 L 15.375 35 C 15.385243 34.986345 15.395527 34.982701 15.40625 34.96875 C 15.69989 34.586707 16.183141 34.133913 16.78125 33.59375 C 17.912115 32.572446 19.393365 31.16422 20.53125 28.90625 z M 13.34375 37 L 36.65625 37 C 38.010558 37 39 37.945047 39 39 C 39 40.054953 38.009293 41 36.65625 41 L 13.34375 41 C 11.990707 41 11 40.054953 11 39 C 11 37.945047 11.990707 37 13.34375 37 z M 13 42.96875 C 13.116414 42.977589 13.22551 43 13.34375 43 L 36.65625 43 C 36.77449 43 36.883586 42.977589 37 42.96875 C 38.488273 44.361194 39.592909 45.980065 39.90625 47 C 40.065224 47.517465 39.99632 47.797706 39.96875 47.84375 C 39.94118 47.889794 39.86809 48 39.28125 48 L 10.71875 48 C 10.132224 48 10.05982 47.891236 10.03125 47.84375 C 10.00268 47.79626 9.936405 47.517055 10.09375 47 C 10.403881 45.980875 11.514711 44.360797 13 42.96875 z"></path>
</svg>


</svg>
    <rect x="50" y="70" width="10px" height="10px" class="field white" data-coords="5,7" data-field="f1"/>
    <svg xmlns="http://www.w3.org/2000/svg" width="7.5px" height="7.5px" x="51.25px" y="71.25px">

<svg xmlns="http://www.w3.org/2000/svg" version="1" viewBox="0 0 50 50" enable-background="new 0 0 50 50" width="100%" height="100%">
  <ellipse cx="25px" cy="25px" rx="7px" ry="3px" style="fill: #fff;"/>
  <polygon points="20,28 30,28 37,36 13,36" style="fill: #fff;"/>
  <rect x="10.5px" y="36.5px" width="29px" height="5px" rx="3px" ry="3px" style="fill: #fff;"/>
  <polygon points="12,42 38,42 41,49 9,49" style="fill: #fff;"/>
  <circle cx="25px" cy="4px" r="3px" style="fill: #fff;"/>
  <polygon points="25,7 29,7 34.5,17 31.5,22.5 18.5,22.5 15.5,17 21,7" style="fill: #fff;"/>


  <path d="M 25 0 C 22.802706 0 21 1.8027056 21 4 C 21 4.6056645 21.161808 5.1712853 21.40625 5.6875 C 20.018141 7.024198 18.46388 8.7457143 17.21875 10.59375 C 15.97362 12.441786 15 14.412816 15 16.40625 C 15 19.337118 16.043658 21.552226 17.5 23.1875 C 17.1893 23.725651 17 24.328291 17 25 C 17 26.382579 17.766871 27.511683 18.875 28.21875 C 17.936603 30.067514 16.769637 31.174652 15.71875 32.15625 C 15.151979 32.685651 14.632013 33.178945 14.1875 33.78125 C 13.924074 34.138186 13.702573 34.545196 13.5625 35 L 13.3125 35 C 11.031019 35 9 36.711765 9 39 C 9 40.40573 9.7548039 41.605106 10.875 42.3125 C 9.5652867 43.665034 8.5757997 45.089855 8.15625 46.4375 C 7.9025688 47.252355 7.8416926 48.111048 8.3125 48.875 C 8.7833074 49.638952 9.6895833 50 10.6875 50 L 39.3125 50 C 40.291801 50 41.207364 49.641971 41.65625 48.875 C 42.105136 48.108029 42.033227 47.24688 41.78125 46.4375 C 41.364022 45.097313 40.374259 43.668758 39.09375 42.3125 C 40.225295 41.60673 41 40.41445 41 39 C 41 36.711765 38.94989 35 36.59375 35 L 36.4375 35 C 36.297594 34.54506 36.076453 34.137757 35.8125 33.78125 C 35.367098 33.179669 34.849106 32.680424 34.28125 32.15625 C 33.216521 31.173423 32.03545 30.090857 31.09375 28.25 C 32.22252 27.545143 33 26.398305 33 25 C 33 24.362518 32.813224 23.799561 32.53125 23.28125 C 34.013946 21.6845 35 19.330769 35 16.5 C 35 14.506566 34.043182 12.533523 32.8125 10.6875 C 31.581818 8.8414772 30.050479 7.1129792 28.71875 5.78125 A 1.0001 1.0001 0 0 0 28.625 5.6875 C 28.865185 5.1749937 29 4.6000304 29 4 C 29 1.8027056 27.197294 0 25 0 z M 25 2 C 26.116414 2 27 2.883586 27 4 C 27 5.116414 26.116414 6 25 6 C 23.883586 6 23 5.116414 23 4 C 23 2.883586 23.883586 2 25 2 z M 22.6875 7.21875 C 23.346678 7.6972906 24.129273 8 25 8 C 25.863604 8 26.656293 7.7214488 27.3125 7.25 C 28.574121 8.5136526 30.045813 10.115595 31.15625 11.78125 C 32.275568 13.460227 33 15.193434 33 16.5 C 33 18.794817 32.219884 20.57752 31.15625 21.78125 C 30.394821 21.289277 29.465805 21 28.5 21 L 21.5 21 C 20.559401 21 19.656295 21.281637 18.90625 21.75 C 17.777725 20.441841 17 18.802424 17 16.40625 C 17 15.099684 17.74513 13.364464 18.875 11.6875 C 19.978389 10.04984 21.399632 8.4687108 22.6875 7.21875 z M 21.5 23 L 28.5 23 C 29.94386 23 31 23.927451 31 25 C 31 26.072549 29.94386 27 28.5 27 L 21.5 27 C 20.05614 27 19 26.072549 19 25 C 19 23.927451 20.05614 23 21.5 23 z M 20.75 28.9375 C 20.995393 28.974711 21.247343 29 21.5 29 L 28.5 29 C 28.742192 29 28.983142 28.97174 29.21875 28.9375 C 30.338699 31.223167 31.803581 32.607152 32.90625 33.625 C 33.475894 34.150826 33.942277 34.595331 34.21875 34.96875 C 34.229005 34.982601 34.240231 34.986432 34.25 35 L 15.75 35 C 15.759797 34.986356 15.770962 34.98269 15.78125 34.96875 C 16.058612 34.59293 16.523021 34.158099 17.09375 33.625 C 18.184251 32.6064 19.637557 31.215324 20.75 28.9375 z M 13.3125 37 L 36.59375 37 C 38.03761 37 39 37.888235 39 39 C 39 40.111765 38.006019 41 36.6875 41 L 13.3125 41 C 11.993981 41 11 40.111765 11 39 C 11 37.888235 11.993981 37 13.3125 37 z M 13.03125 42.96875 C 13.125567 42.974643 13.217179 43 13.3125 43 L 36.6875 43 C 36.772316 43 36.853467 42.973423 36.9375 42.96875 C 38.427819 44.374667 39.52503 46.007482 39.84375 47.03125 C 40.004273 47.54687 39.960489 47.804471 39.9375 47.84375 C 39.914511 47.883029 39.883199 48 39.3125 48 L 10.6875 48 C 10.085417 48 10.026068 47.886048 10 47.84375 C 9.973932 47.80145 9.903681 47.541395 10.0625 47.03125 C 10.377869 46.018248 11.494387 44.374876 13.03125 42.96875 z"></path>

</svg>


</svg>
  </g>
  <g class="row" data-row="g">
    <rect x="60" y="0" width="10px" height="10px" class="field white" data-coords="6,0" data-field="g8"/>
    <svg xmlns="http://www.w3.org/2000/svg" width="7.5px" height="7.5px" x="61.25px" y="1.25px">

<svg xmlns="http://www.w3.org/2000/svg" width="100%" height="100%" viewBox="0 0 26 26">
    <path d="M 13.9375 0.03125 C 11.1385 0.50225 10.83725 3.07275 10.65625 3.59375 C 9.90625 4.03675 8.877 4.9365 8.125 5.6875 C 6.24 7.5735 5.5385 10.6655 6.6875 13.6875 C 7.1875 15.0015 8.03125 19 8.03125 19 L 6 19 C 4.896 19 4 19.672 4 20.5 C 4 21.328 4.896 22 6 22 L 6.25 22 L 5.9375 22.28125 C 4.1325 23.91225 3.235 26 5 26 L 21 26 C 22.766 26 21.8705 23.91225 20.0625 22.28125 L 19.75 22 L 20 22 C 21.104 22 22 21.328 22 20.5 C 22 19.672 21.104 19 20 19 L 19 19 C 19 15.294 13.84375 11.13075 13.84375 10.59375 C 13.84375 10.17175 14.0615 10.70425 14.6875 10.65625 C 15.3065 10.60725 15.95625 9.6875 16.53125 9.6875 C 17.76725 9.6875 17.573 10.78125 18.625 10.78125 C 19.336 10.78125 19.6535 10.00125 19.9375 9.65625 C 20.2945 9.22425 21.303 9.3985 20.75 8.1875 C 20.457 7.5435 19.31125 5.39 17.15625 4.5 C 16.17425 4.094 17.07975 2.96875 13.96875 2.96875 C 13.70075 2.55475 13.7345 1.04725 13.9375 0.03125 z"></path>
</svg>


</svg>
    <rect x="60" y="10" width="10px" height="10px" class="field black" data-coords="6,1" data-field="g7"/>
    <svg xmlns="http://www.w3.org/2000/svg" width="7.5px" height="7.5px" x="61.25px" y="11.25px">

<svg xmlns="http://www.w3.org/2000/svg" width="100%" height="100%" viewBox="0 0 50 50">
    <path d="M 25 8 C 21.134007 8 18 11.134007 18 15 C 18 18.865993 21.134007 22 25 22 C 28.865993 22 32 18.865993 32 15 C 32 11.134007 28.865993 8 25 8 z M 25 22 L 20.5 22 C 18.6 22 17 23.3 17 25 C 17 26.7 18.6 28 20.5 28 L 29.5 28 C 31.4 28 33 26.7 33 25 C 33 23.3 31.4 22 29.5 22 L 25 22 z M 17.9375 29.40625 C 17.5415 29.96325 17.1195 30.4865 16.6875 30.9375 C 15.2335 32.4525 13 33.781 13 36 L 12.5 36 C 10.6 36 9 37.3 9 39 C 9 40.7 10.6 42 12.5 42 L 37.5 42 C 39.4 42 41 40.7 41 39 C 41 37.3 39.4 36 37.5 36 L 37 36 C 37 33.547 34.59375 32.4685 32.84375 30.4375 C 32.67475 30.2425 32.3755 29.84825 32.0625 29.40625 C 31.2965 29.77425 30.425 30 29.5 30 L 20.5 30 C 19.574 30 18.7035 29.77525 17.9375 29.40625 z M 9.90625 43.40625 C 8.52925 45.11725 7.557 47.06425 8.125 48.53125 C 8.337 49.08225 8.9415 50 10.6875 50 L 39.3125 50 C 40.9955 50 41.6015 49.0985 41.8125 48.5625 C 42.3875 47.1075 41.4205 45.13625 40.0625 43.40625 C 39.2945 43.77625 38.428 44 37.5 44 L 12.5 44 C 11.558 44 10.68125 43.78725 9.90625 43.40625 z"></path>
</svg>


</svg>
    <rect x="60" y="20" width="10px" height="10px" class="field white" data-coords="6,2" data-field="g6"/>
    !!!
    <rect x="60" y="30" width="10px" height="10px" class="field black" data-coords="6,3" data-field="g5"/>
    !!!
    <rect x="60" y="40" width="10px" height="10px" class="field white" data-coords="6,4" data-field="g4"/>
    !!!
    <rect x="60" y="50" width="10px" height="10px" class="field black" data-coords="6,5" data-field="g3"/>
    !!!
    <rect x="60" y="60" width="10px" height="10px" class="field white" data-coords="6,6" data-field="g2"/>
    <svg xmlns="http://www.w3.org/2000/svg" width="7.5px" height="7.5px" x="61.25px" y="61.25px">

<svg xmlns="http://www.w3.org/2000/svg" width="100%" height="100%" viewBox="0 0 50 50">
  <circle cx="25px" cy="15px" r="7px" style="fill: #fff;"/>
  <ellipse cx="25px" cy="25px" rx="7px" ry="3px" style="fill: #fff;"/>
  <polygon points="20,28 30,28 37,36 13,36" style="fill: #fff;"/>
  <rect x="10.5px" y="36.5px" width="29px" height="5px" rx="3px" ry="3px" style="fill: #fff;"/>
  <polygon points="12,42 38,42 41,49 9,49" style="fill: #fff;"/>

  <path d="M 25 7 C 20.593567 7 17 10.593567 17 15 C 17 17.533699 18.183641 19.782446 20.03125 21.25 C 18.309476 21.784375 17 23.201243 17 25 C 17 26.301025 17.690466 27.405163 18.71875 28.125 C 17.756716 29.998307 16.541527 31.127935 15.4375 32.125 C 14.844734 32.660337 14.277954 33.144418 13.8125 33.75 C 13.530937 34.11633 13.300544 34.557746 13.15625 35.03125 C 10.912472 35.125016 9 36.806031 9 39 C 9 40.379689 9.7576117 41.566446 10.875 42.28125 C 9.5868435 43.63352 8.5990196 45.053951 8.1875 46.40625 C 7.9389705 47.222945 7.8829136 48.109048 8.34375 48.875 C 8.8045864 49.640952 9.7267759 50 10.71875 50 L 39.28125 50 C 40.27341 50 41.228007 49.642393 41.6875 48.875 C 42.146993 48.107607 42.063276 47.222535 41.8125 46.40625 C 41.397755 45.056241 40.418161 43.632127 39.125 42.28125 C 40.242388 41.566446 41 40.379689 41 39 C 41 36.806031 39.088164 35.125016 36.84375 35.03125 C 36.698949 34.557257 36.467488 34.115492 36.1875 33.75 C 35.72465 33.145803 35.152578 32.657783 34.5625 32.125 C 33.456104 31.126033 32.244405 30.00275 31.28125 28.125 C 32.309534 27.405163 33 26.301025 33 25 C 33 23.200926 31.690355 21.784284 29.96875 21.25 C 31.816359 19.782446 33 17.533699 33 15 C 33 10.593567 29.406433 7 25 7 z M 25 9 C 28.325553 9 31 11.674447 31 15 C 31 18.325553 28.325553 21 25 21 C 21.674447 21 19 18.325553 19 15 C 19 11.674447 21.674447 9 25 9 z M 21.5 23 L 25 23 L 28.5 23 C 29.968232 23 31 23.97524 31 25 C 31 26.025163 29.969472 27 28.5 27 L 21.5 27 C 20.030528 27 19 26.025163 19 25 C 19 23.974837 20.030528 23 21.5 23 z M 20.53125 28.90625 C 20.848243 28.969416 21.166813 29 21.5 29 L 28.5 29 C 28.822987 29 29.129591 28.965696 29.4375 28.90625 C 30.579454 31.185766 32.083218 32.599725 33.21875 33.625 C 33.813047 34.161592 34.302631 34.588728 34.59375 34.96875 C 34.604381 34.982627 34.614836 34.986405 34.625 35 L 15.375 35 C 15.385243 34.986345 15.395527 34.982701 15.40625 34.96875 C 15.69989 34.586707 16.183141 34.133913 16.78125 33.59375 C 17.912115 32.572446 19.393365 31.16422 20.53125 28.90625 z M 13.34375 37 L 36.65625 37 C 38.010558 37 39 37.945047 39 39 C 39 40.054953 38.009293 41 36.65625 41 L 13.34375 41 C 11.990707 41 11 40.054953 11 39 C 11 37.945047 11.990707 37 13.34375 37 z M 13 42.96875 C 13.116414 42.977589 13.22551 43 13.34375 43 L 36.65625 43 C 36.77449 43 36.883586 42.977589 37 42.96875 C 38.488273 44.361194 39.592909 45.980065 39.90625 47 C 40.065224 47.517465 39.99632 47.797706 39.96875 47.84375 C 39.94118 47.889794 39.86809 48 39.28125 48 L 10.71875 48 C 10.132224 48 10.05982 47.891236 10.03125 47.84375 C 10.00268 47.79626 9.936405 47.517055 10.09375 47 C 10.403881 45.980875 11.514711 44.360797 13 42.96875 z"></path>
</svg>


</svg>
    <rect x="60" y="70" width="10px" height="10px" class="field black" data-coords="6,7" data-field="g1"/>
    <svg xmlns="http://www.w3.org/2000/svg" width="7.5px" height="7.5px" x="61.25px" y="71.25px">

<svg xmlns="http://www.w3.org/2000/svg" width="100%" height="100%" viewBox="0 0 50 50">
    <polygon points="12,42 38,42 41,49 9,49" style="fill: #fff;"/>
    <rect x="10.5px" y="36.5px" width="29px" height="5px" rx="3px" ry="3px" style="fill: #fff;"/>
    <polygon points="26,3 26,8 31.5,9.3 39.5,18.5 34.5,22 31,20 27,22 35,33 35,36 16,36 13,22 15,14.5" style="fill: #fff;"/>
    <path d="M 26.5 2.0625 C 23.734974 2.5276185 22.06246 4.1412538 21.15625 5.6875 C 20.703145 6.4606231 20.407621 7.2261831 20.21875 7.84375 C 20.063812 8.3503655 19.986558 8.657717 19.9375 8.84375 C 18.523251 9.7540989 16.916586 11.115613 15.65625 12.375 C 12.021676 16.010663 10.74585 21.879361 12.90625 27.5625 C 13.632871 29.471252 15 31.787429 15 35 L 13.34375 35 C 11.016793 35 9 36.742953 9 39 C 9 40.379689 9.7576117 41.566446 10.875 42.28125 C 9.5868435 43.63352 8.5990196 45.053951 8.1875 46.40625 C 7.9389705 47.222945 7.8829136 48.109048 8.34375 48.875 C 8.8045864 49.640952 9.7267759 50 10.71875 50 L 39.28125 50 C 40.27341 50 41.228007 49.642393 41.6875 48.875 C 42.146993 48.107607 42.063276 47.222535 41.8125 46.40625 C 41.397755 45.056241 40.418161 43.632127 39.125 42.28125 C 40.242388 41.566446 41 40.379689 41 39 C 41 36.742953 38.983942 35 36.65625 35 L 36 35 C 36 31.148041 33.670475 27.887004 31.46875 25.46875 C 30.425828 24.323261 29.4381 23.385519 28.65625 22.65625 C 29.306474 22.438372 29.83245 22.070679 30.25 21.75 C 30.794833 21.331568 31.245768 21.15625 31.21875 21.15625 C 32.019331 21.15625 32.064736 21.323526 32.46875 21.78125 C 32.670757 22.010112 32.931688 22.313579 33.34375 22.59375 C 33.755812 22.873921 34.330855 23.0625 34.96875 23.0625 C 35.9597 23.0625 36.703583 22.498446 37.15625 21.96875 C 37.608917 21.439054 37.899529 20.87881 38.03125 20.71875 C 38.02195 20.73005 38.10896 20.65712 38.3125 20.5625 C 38.516039 20.46788 38.814582 20.368742 39.15625 20.125 C 39.497918 19.881258 39.89322 19.411132 39.96875 18.84375 C 40.04428 18.276368 39.88154 17.724064 39.59375 17.09375 C 39.017329 15.828733 36.941335 11.777915 32.71875 10.03125 C 32.486029 9.934975 32.467538 9.8863856 32.34375 9.6875 C 32.219962 9.4886144 32.055357 9.1188273 31.6875 8.6875 C 31.319643 8.2561727 30.731171 7.8364532 29.9375 7.59375 C 29.3349 7.4094757 28.415641 7.3891411 27.46875 7.34375 C 27.4527 7.278015 27.44919 7.302113 27.4375 7.21875 C 27.39408 6.9091166 27.37204 6.5171793 27.375 6.0625 C 27.3809 5.1531414 27.46113 4.0702747 27.625 3.25 A 1.0001 1.0001 0 0 0 26.5 2.0625 z M 25.53125 4.5625 C 25.48427 5.0680747 25.378182 5.5423335 25.375 6.03125 C 25.3716 6.5561957 25.374391 7.0499772 25.4375 7.5 C 25.50061 7.9500228 25.568163 8.3556593 25.84375 8.78125 A 1.0001 1.0001 0 0 0 26.6875 9.25 C 28.002877 9.25 28.836421 9.3761095 29.34375 9.53125 C 29.851079 9.6863905 30.020607 9.8097023 30.15625 9.96875 C 30.291893 10.127798 30.389288 10.371292 30.625 10.75 C 30.860712 11.128708 31.301221 11.611775 31.9375 11.875 C 35.334915 13.280335 37.319671 16.893267 37.78125 17.90625 C 37.973601 18.327535 37.968537 18.513875 37.96875 18.53125 C 37.89835 18.57513 37.723715 18.63147 37.46875 18.75 C 37.194352 18.877564 36.825346 19.075452 36.5 19.46875 C 36.129721 19.91869 35.886333 20.350446 35.625 20.65625 C 35.363667 20.962054 35.2358 21.0625 34.96875 21.0625 C 34.675645 21.0625 34.587813 21.01845 34.46875 20.9375 C 34.349687 20.85655 34.191743 20.690138 33.96875 20.4375 C 33.522764 19.932224 32.606169 19.15625 31.21875 19.15625 C 30.173732 19.15625 29.580167 19.765932 29.03125 20.1875 C 28.482333 20.609068 27.986792 20.868674 27.90625 20.875 C 27.641831 20.89552 27.564662 20.82544 27.3125 20.6875 C 27.24946 20.65301 27.164597 20.61539 27.03125 20.5625 C 26.897903 20.50961 26.655064 20.396956 26.25 20.53125 C 25.844936 20.665544 25.59222 21.068722 25.53125 21.28125 C 25.47028 21.493778 25.46875 21.611667 25.46875 21.75 C 25.46875 22.204548 25.638565 22.369358 25.75 22.53125 C 25.861435 22.693142 25.989712 22.824567 26.125 22.96875 C 26.395575 23.257116 26.723657 23.594003 27.125 23.96875 C 27.927686 24.718244 28.970613 25.681877 30 26.8125 C 32.058775 29.073746 34 31.973959 34 35 L 17 35 C 17 31.212571 15.347379 28.444248 14.75 26.875 C 12.8444 21.862139 14.027074 16.817587 17.0625 13.78125 C 18.349308 12.49541 20.178657 10.937826 21.34375 10.25 A 1.0001 1.0001 0 0 0 21.78125 9.71875 C 21.916144 9.3308766 21.964402 8.9313706 22.125 8.40625 C 22.285598 7.8811294 22.52973 7.2766269 22.875 6.6875 C 23.390333 5.8081993 24.284683 5.0837554 25.53125 4.5625 z M 13.34375 37 L 36.65625 37 C 38.010558 37 39 37.945047 39 39 C 39 40.054953 38.009293 41 36.65625 41 L 13.34375 41 C 11.990707 41 11 40.054953 11 39 C 11 37.945047 11.990707 37 13.34375 37 z M 13 42.96875 C 13.116414 42.977589 13.22551 43 13.34375 43 L 36.65625 43 C 36.77449 43 36.883586 42.977589 37 42.96875 C 38.488273 44.361194 39.592909 45.980065 39.90625 47 C 40.065224 47.517465 39.99632 47.797706 39.96875 47.84375 C 39.94118 47.889794 39.86809 48 39.28125 48 L 10.71875 48 C 10.132224 48 10.05982 47.891236 10.03125 47.84375 C 10.00268 47.79626 9.936405 47.517055 10.09375 47 C 10.403881 45.980875 11.514711 44.360797 13 42.96875 z"></path>

</svg>


</svg>
  </g>
  <g class="row" data-row="h">
    <rect x="70" y="0" width="10px" height="10px" class="field black" data-coords="7,0" data-field="h8"/>
    <svg xmlns="http://www.w3.org/2000/svg" width="7.5px" height="7.5px" x="71.25px" y="1.25px">

<svg xmlns="http://www.w3.org/2000/svg" width="100%" height="100%" viewBox="0 0 26 26">
    <path d="M 8 2 C 7.449 2 7 2.449 7 3 L 7 8 C 7 8.551 7.449 9 8 9 L 11.0625 9 C 11.022977 9.3074144 11 9.6395826 11 10 C 9.896 10 9 10.672 9 11.5 C 9 12.248244 9.7318206 12.856088 10.6875 12.96875 C 9.7549448 17.037835 7 17.33734 7 19 L 6 19 C 4.896 19 4 19.672 4 20.5 C 4 21.328 4.896 22 6 22 L 6.25 22 L 5.9375 22.28125 C 4.1325 23.91225 3.235 26 5 26 L 21 26 C 22.766 26 21.8705 23.91225 20.0625 22.28125 L 19.75 22 L 20 22 C 21.104 22 22 21.328 22 20.5 C 22 19.672 21.104 19 20 19 L 19 19 C 19 17.33734 16.245055 17.037835 15.3125 12.96875 C 16.268179 12.856088 17 12.248244 17 11.5 C 17 10.672 16.104 10 15 10 C 15 9.6403489 14.977482 9.3072072 14.9375 9 L 18 9 C 18.551 9 19 8.551 19 8 L 19 3 C 19 2.449 18.551 2 18 2 L 17 2 L 17 4 C 17 4 17 5.125 16 5.125 C 15 5.125 15 4 15 4 L 15 2 L 11 2 L 11 4 C 11 4 11 5.125 10 5.125 C 9 5.125 9 4 9 4 L 9 2 L 8 2 z"></path>
</svg>


</svg>
    <rect x="70" y="10" width="10px" height="10px" class="field white" data-coords="7,1" data-field="h7"/>
    <svg xmlns="http://www.w3.org/2000/svg" width="7.5px" height="7.5px" x="71.25px" y="11.25px">

<svg xmlns="http://www.w3.org/2000/svg" width="100%" height="100%" viewBox="0 0 50 50">
    <path d="M 25 8 C 21.134007 8 18 11.134007 18 15 C 18 18.865993 21.134007 22 25 22 C 28.865993 22 32 18.865993 32 15 C 32 11.134007 28.865993 8 25 8 z M 25 22 L 20.5 22 C 18.6 22 17 23.3 17 25 C 17 26.7 18.6 28 20.5 28 L 29.5 28 C 31.4 28 33 26.7 33 25 C 33 23.3 31.4 22 29.5 22 L 25 22 z M 17.9375 29.40625 C 17.5415 29.96325 17.1195 30.4865 16.6875 30.9375 C 15.2335 32.4525 13 33.781 13 36 L 12.5 36 C 10.6 36 9 37.3 9 39 C 9 40.7 10.6 42 12.5 42 L 37.5 42 C 39.4 42 41 40.7 41 39 C 41 37.3 39.4 36 37.5 36 L 37 36 C 37 33.547 34.59375 32.4685 32.84375 30.4375 C 32.67475 30.2425 32.3755 29.84825 32.0625 29.40625 C 31.2965 29.77425 30.425 30 29.5 30 L 20.5 30 C 19.574 30 18.7035 29.77525 17.9375 29.40625 z M 9.90625 43.40625 C 8.52925 45.11725 7.557 47.06425 8.125 48.53125 C 8.337 49.08225 8.9415 50 10.6875 50 L 39.3125 50 C 40.9955 50 41.6015 49.0985 41.8125 48.5625 C 42.3875 47.1075 41.4205 45.13625 40.0625 43.40625 C 39.2945 43.77625 38.428 44 37.5 44 L 12.5 44 C 11.558 44 10.68125 43.78725 9.90625 43.40625 z"></path>
</svg>


</svg>
    <rect x="70" y="20" width="10px" height="10px" class="field black" data-coords="7,2" data-field="h6"/>
    !!!
    <rect x="70" y="30" width="10px" height="10px" class="field white" data-coords="7,3" data-field="h5"/>
    !!!
    <rect x="70" y="40" width="10px" height="10px" class="field black" data-coords="7,4" data-field="h4"/>
    !!!
    <rect x="70" y="50" width="10px" height="10px" class="field white" data-coords="7,5" data-field="h3"/>
    !!!
    <rect x="70" y="60" width="10px" height="10px" class="field black" data-coords="7,6" data-field="h2"/>
    <svg xmlns="http://www.w3.org/2000/svg" width="7.5px" height="7.5px" x="71.25px" y="61.25px">

<svg xmlns="http://www.w3.org/2000/svg" width="100%" height="100%" viewBox="0 0 50 50">
  <circle cx="25px" cy="15px" r="7px" style="fill: #fff;"/>
  <ellipse cx="25px" cy="25px" rx="7px" ry="3px" style="fill: #fff;"/>
  <polygon points="20,28 30,28 37,36 13,36" style="fill: #fff;"/>
  <rect x="10.5px" y="36.5px" width="29px" height="5px" rx="3px" ry="3px" style="fill: #fff;"/>
  <polygon points="12,42 38,42 41,49 9,49" style="fill: #fff;"/>

  <path d="M 25 7 C 20.593567 7 17 10.593567 17 15 C 17 17.533699 18.183641 19.782446 20.03125 21.25 C 18.309476 21.784375 17 23.201243 17 25 C 17 26.301025 17.690466 27.405163 18.71875 28.125 C 17.756716 29.998307 16.541527 31.127935 15.4375 32.125 C 14.844734 32.660337 14.277954 33.144418 13.8125 33.75 C 13.530937 34.11633 13.300544 34.557746 13.15625 35.03125 C 10.912472 35.125016 9 36.806031 9 39 C 9 40.379689 9.7576117 41.566446 10.875 42.28125 C 9.5868435 43.63352 8.5990196 45.053951 8.1875 46.40625 C 7.9389705 47.222945 7.8829136 48.109048 8.34375 48.875 C 8.8045864 49.640952 9.7267759 50 10.71875 50 L 39.28125 50 C 40.27341 50 41.228007 49.642393 41.6875 48.875 C 42.146993 48.107607 42.063276 47.222535 41.8125 46.40625 C 41.397755 45.056241 40.418161 43.632127 39.125 42.28125 C 40.242388 41.566446 41 40.379689 41 39 C 41 36.806031 39.088164 35.125016 36.84375 35.03125 C 36.698949 34.557257 36.467488 34.115492 36.1875 33.75 C 35.72465 33.145803 35.152578 32.657783 34.5625 32.125 C 33.456104 31.126033 32.244405 30.00275 31.28125 28.125 C 32.309534 27.405163 33 26.301025 33 25 C 33 23.200926 31.690355 21.784284 29.96875 21.25 C 31.816359 19.782446 33 17.533699 33 15 C 33 10.593567 29.406433 7 25 7 z M 25 9 C 28.325553 9 31 11.674447 31 15 C 31 18.325553 28.325553 21 25 21 C 21.674447 21 19 18.325553 19 15 C 19 11.674447 21.674447 9 25 9 z M 21.5 23 L 25 23 L 28.5 23 C 29.968232 23 31 23.97524 31 25 C 31 26.025163 29.969472 27 28.5 27 L 21.5 27 C 20.030528 27 19 26.025163 19 25 C 19 23.974837 20.030528 23 21.5 23 z M 20.53125 28.90625 C 20.848243 28.969416 21.166813 29 21.5 29 L 28.5 29 C 28.822987 29 29.129591 28.965696 29.4375 28.90625 C 30.579454 31.185766 32.083218 32.599725 33.21875 33.625 C 33.813047 34.161592 34.302631 34.588728 34.59375 34.96875 C 34.604381 34.982627 34.614836 34.986405 34.625 35 L 15.375 35 C 15.385243 34.986345 15.395527 34.982701 15.40625 34.96875 C 15.69989 34.586707 16.183141 34.133913 16.78125 33.59375 C 17.912115 32.572446 19.393365 31.16422 20.53125 28.90625 z M 13.34375 37 L 36.65625 37 C 38.010558 37 39 37.945047 39 39 C 39 40.054953 38.009293 41 36.65625 41 L 13.34375 41 C 11.990707 41 11 40.054953 11 39 C 11 37.945047 11.990707 37 13.34375 37 z M 13 42.96875 C 13.116414 42.977589 13.22551 43 13.34375 43 L 36.65625 43 C 36.77449 43 36.883586 42.977589 37 42.96875 C 38.488273 44.361194 39.592909 45.980065 39.90625 47 C 40.065224 47.517465 39.99632 47.797706 39.96875 47.84375 C 39.94118 47.889794 39.86809 48 39.28125 48 L 10.71875 48 C 10.132224 48 10.05982 47.891236 10.03125 47.84375 C 10.00268 47.79626 9.936405 47.517055 10.09375 47 C 10.403881 45.980875 11.514711 44.360797 13 42.96875 z"></path>
</svg>


</svg>
    <rect x="70" y="70" width="10px" height="10px" class="field white" data-coords="7,7" data-field="h1"/>
    <svg xmlns="http://www.w3.org/2000/svg" width="7.5px" height="7.5px" x="71.25px" y="71.25px">

<svg xmlns="http://www.w3.org/2000/svg" width="100%" height="100%" viewBox="0 0 50 50">
  <ellipse cx="25px" cy="25px" rx="7px" ry="3px" style="fill: #fff;"/>
  <polygon points="20,28 30,28 37,36 13,36" style="fill: #fff;"/>
  <rect x="10.5px" y="36.5px" width="29px" height="5px" rx="3px" ry="3px" style="fill: #fff;"/>
  <polygon points="12,42 38,42 41,49 9,49" style="fill: #fff;"/>
  <rect x="21px" y="18px" width="8px" height="4px" style="fill: #fff;"/>
  <polygon points="13,4 17,4 17,9.5 21,9.5 21,4 29,4 29,9.5 33,9.5 33,4 37,4 37,17.5 13,17.5" style="fill: #fff;"/>

  <path d="M 15 3 C 13.354745 3 12 4.3547453 12 6 L 12 16 C 12 17.645255 13.354745 19 15 19 L 20 19 L 20 21.25 C 18.292092 21.791256 17 23.210975 17 25 C 17 26.362059 17.765116 27.504476 18.875 28.21875 C 17.939636 30.079528 16.752238 31.160171 15.6875 32.15625 C 15.1234 32.683974 14.598012 33.179654 14.15625 33.78125 C 13.894455 34.137766 13.67184 34.544732 13.53125 35 L 13.34375 35 C 11.016793 35 9 36.742953 9 39 C 9 40.379689 9.7576117 41.566446 10.875 42.28125 C 9.5868435 43.63352 8.5990196 45.053951 8.1875 46.40625 C 7.9389705 47.222945 7.8829136 48.109048 8.34375 48.875 C 8.8045864 49.640952 9.7267759 50 10.71875 50 L 39.28125 50 C 40.27341 50 41.228007 49.642393 41.6875 48.875 C 42.146993 48.107607 42.063276 47.222535 41.8125 46.40625 C 41.397755 45.056241 40.418161 43.632127 39.125 42.28125 C 40.242388 41.566446 41 40.379689 41 39 C 41 36.742953 38.983942 35 36.65625 35 L 36.46875 35 C 36.328573 34.545206 36.106846 34.138537 35.84375 33.78125 C 35.399793 33.178353 34.847572 32.686039 34.28125 32.15625 C 33.224116 31.167311 32.054024 30.0618 31.125 28.21875 C 32.234884 27.504476 33 26.362059 33 25 C 33 23.21066 31.707747 21.791164 30 21.25 L 30 19 L 35 19 C 36.645255 19 38 17.645255 38 16 L 38 6 C 38 4.3547453 36.645255 3 35 3 L 33 3 A 1.0001 1.0001 0 0 0 32 4 L 32 8 C 32 8 31.974493 8.3010139 31.84375 8.5625 C 31.713007 8.8239861 31.666667 9 31 9 C 30.333333 9 30.286993 8.8239861 30.15625 8.5625 C 30.025507 8.3010139 30 8 30 8 L 30 4 A 1.0001 1.0001 0 0 0 29 3 L 21 3 A 1.0001 1.0001 0 0 0 20 4 L 20 8 C 20 8 19.974493 8.3010139 19.84375 8.5625 C 19.713007 8.8239861 19.666667 9 19 9 C 18.333333 9 18.286993 8.8239861 18.15625 8.5625 C 18.025507 8.3010139 18 8 18 8 L 18 4 A 1.0001 1.0001 0 0 0 17 3 L 15 3 z M 15 5 L 16 5 L 16 8 C 16 8 15.97449 8.6989861 16.34375 9.4375 C 16.713007 10.176014 17.666667 11 19 11 C 20.333333 11 21.286993 10.176014 21.65625 9.4375 C 22.025507 8.6989861 22 8 22 8 L 22 5 L 28 5 L 28 8 C 28 8 27.97449 8.6989861 28.34375 9.4375 C 28.713007 10.176014 29.666667 11 31 11 C 32.333333 11 33.286993 10.176014 33.65625 9.4375 C 34.025507 8.6989861 34 8 34 8 L 34 5 L 35 5 C 35.558745 5 36 5.4412547 36 6 L 36 16 C 36 16.558745 35.558745 17 35 17 L 29.1875 17 A 1.0001 1.0001 0 0 0 28.78125 17 L 21.1875 17 A 1.0001 1.0001 0 0 0 20.78125 17 L 15 17 C 14.441255 17 14 16.558745 14 16 L 14 6 C 14 5.4412547 14.441255 5 15 5 z M 22 19 L 28 19 L 28 21 L 22 21 L 22 19 z M 21.5 23 L 28.5 23 C 29.968232 23 31 23.97524 31 25 C 31 26.025163 29.969472 27 28.5 27 L 21.5 27 C 20.030528 27 19 26.025163 19 25 C 19 23.974837 20.030528 23 21.5 23 z M 20.71875 28.9375 C 20.976552 28.978644 21.232367 29 21.5 29 L 28.5 29 C 28.767633 29 29.023448 28.978644 29.28125 28.9375 C 30.384226 31.202122 31.814648 32.603816 32.90625 33.625 C 33.475428 34.157461 33.940832 34.591335 34.21875 34.96875 C 34.228899 34.982532 34.240249 34.986504 34.25 35 L 15.75 35 C 15.759687 34.986553 15.771175 34.98247 15.78125 34.96875 C 16.057144 34.593034 16.496475 34.154526 17.0625 33.625 C 18.158164 32.599989 19.610083 31.218995 20.71875 28.9375 z M 13.34375 37 L 36.65625 37 C 38.010558 37 39 37.945047 39 39 C 39 40.054953 38.009293 41 36.65625 41 L 13.34375 41 C 11.990707 41 11 40.054953 11 39 C 11 37.945047 11.990707 37 13.34375 37 z M 13 42.96875 C 13.116414 42.977589 13.22551 43 13.34375 43 L 36.65625 43 C 36.77449 43 36.883586 42.977589 37 42.96875 C 38.488273 44.361194 39.592909 45.980065 39.90625 47 C 40.065224 47.517465 39.99632 47.797706 39.96875 47.84375 C 39.94118 47.889794 39.86809 48 39.28125 48 L 10.71875 48 C 10.132224 48 10.05982 47.891236 10.03125 47.84375 C 10.00268 47.79626 9.936405 47.517055 10.09375 47 C 10.403881 45.980875 11.514711 44.360797 13 42.96875 z"></path>
</svg>


</svg>
  </g>
</svg>